<?xml version="1.0" encoding="UTF-8"?>
<svg width="256px" height="256px" viewBox="0 0 256 256" version="1.1" xmlns="http://www.w3.org/2000/svg" xmlns:xlink="http://www.w3.org/1999/xlink">
    <!-- Generator: Sketch 51.2 (57519) - http://www.bohemiancoding.com/sketch -->
    <title>logo</title>
    <desc>Created with Sketch.</desc>
    <defs></defs>
    <g id="Page-1" stroke="none" stroke-width="1" fill="none" fill-rule="evenodd">
        <g id="logo" fill-rule="nonzero">
            <path d="M114.050805,0.65773494 C113.338143,1.00240964 112.52974,1.41185542 112.254753,1.56761446 C111.979767,1.72337349 111.558648,1.85060241 111.318935,1.85060241 C111.079221,1.85060241 110.883419,1.98939759 110.883419,2.15903614 C110.883419,2.3286747 110.708493,2.46746988 110.495414,2.46746988 C110.281616,2.46746988 109.404106,3.22004819 108.545313,4.14072289 C107.686519,5.06062651 106.807569,5.8586988 106.593051,5.91421687 C106.377813,5.96896386 105.900545,6.32674699 105.532697,6.70843373 C105.164128,7.09012048 104.582481,7.40240964 104.240547,7.40240964 C103.733045,7.40240964 103.643063,7.54351807 103.753921,8.16655422 C103.856861,8.74486747 103.743843,8.98081928 103.288172,9.13580723 C102.689968,9.33937349 102.689968,9.34168675 103.329924,9.59537349 C104.255664,9.96163855 104.197355,11.1036145 103.252899,11.1036145 C102.805145,11.1036145 102.533038,10.9285783 102.533038,10.6409639 C102.533038,10.386506 102.403463,10.1783133 102.245094,10.1783133 C102.086725,10.1783133 101.95715,10.3895904 101.95715,10.6479036 C101.95715,10.9054458 101.622415,11.2801928 101.213534,11.4799036 C100.495833,11.8299759 100.490794,11.8507952 101.069562,12.0798072 C102.178867,12.5193253 101.846291,13.3783133 100.040881,14.7377349 C98.9214983,15.5805301 98.3369716,15.5936386 97.1268863,14.8040482 C96.6085867,14.4647711 95.8253786,14.1879518 95.3862637,14.1879518 C94.8290917,14.1879518 94.2424055,13.8062651 93.4491193,12.928 C90.7626001,9.95546988 88.9845448,10.0518554 86.0770285,13.3281928 C85.0476281,14.4871325 84.7733613,14.4293012 83.0492955,12.6858795 C81.3029141,10.9208675 80.3865318,10.5831325 79.1447725,11.2462651 C78.6567072,11.5068916 77.7460837,11.7204819 77.1219647,11.7204819 C76.2077419,11.7204819 75.7319142,11.9602892 74.6780385,12.9542169 C73.9581781,13.6327711 73.0799483,14.1879518 72.725777,14.1879518 C72.2859423,14.1879518 70.8822144,15.4648675 68.2885573,18.2222651 C64.4992119,22.2504096 64.4927332,22.2558072 63.3913467,22.0560964 C62.3914606,21.8756627 62.2287721,21.9458313 61.6586426,22.8032771 C61.1633787,23.5489157 60.8178457,23.7493976 60.0274389,23.7493976 C57.4697748,23.7493976 50.1408757,30.3244337 48.2397242,34.3248193 C47.6372011,35.593253 47.0584333,36.3203855 46.2399519,36.8400964 C44.5605175,37.9049639 43.996147,38.5048675 42.8170156,40.4819277 C42.2094534,41.499759 41.5486215,42.258506 41.2642766,42.2623614 C40.9914495,42.2662169 40.4450754,42.5407229 40.0491522,42.8722892 C39.6532289,43.2038554 39.1601245,43.4783614 38.9535246,43.4822169 C38.1120077,43.4976386 35.1821758,45.9859277 34.5314219,47.2381687 C34.1614137,47.9498795 33.422117,48.7919036 32.8894203,49.1088193 C31.3647559,50.0156145 30.2590502,51.6418313 30.2590502,52.9773494 C30.2590502,53.2927229 30.0315743,53.8201446 29.7537082,54.1493976 C27.5091834,56.8034699 26.1608848,59.0334458 26.4747439,59.5724337 C27.3018636,60.9904578 26.422914,62.5588434 25.3719177,61.540241 C24.6974085,60.8863614 24.7406001,60.8578313 23.2087371,62.9466988 C21.4868309,65.2938795 21.0232408,65.765012 18.9111703,67.3141205 C16.6457695,68.9758072 15.8618415,69.7291566 15.8618415,70.2465542 C15.8618415,70.9528675 15.1419811,71.5088193 13.7353738,71.8881928 C12.9766409,72.0933012 12.4065114,72.4256386 12.4065114,72.6631325 C12.4065114,73.1018795 11.5362001,74.8784578 10.6831655,76.1831325 C9.39173588,78.1571084 9.66744243,79.1471807 12.2546208,81.8243855 C14.4689115,84.1160482 14.5279401,84.5200964 12.9104137,86.2858795 C11.0553334,88.310747 11.1316386,89.7696386 13.1983579,91.7775422 C14.0297967,92.5848675 14.7100648,93.4785542 14.7100648,93.7630843 C14.7100648,94.6475181 10.8782477,98.3294458 9.06275966,99.1899759 C8.15069649,99.6217831 6.70521673,100.660434 5.85074239,101.49706 C4.99554819,102.333687 3.56230606,103.399325 2.66464009,103.865831 C-0.657515824,105.590747 -0.50274583,106.362602 4.2238578,111.638361 C5.97887755,113.596916 7.92250073,115.821494 8.54302042,116.580241 C9.16354012,117.339759 9.93019149,118.248867 10.2469301,118.601253 C10.5636687,118.953639 11.2763305,119.841157 11.830623,120.572916 C12.3849156,121.304675 12.9766409,122.061108 13.1458081,122.253108 C13.3142554,122.445108 13.6727459,122.963277 13.9419737,123.403566 L14.4307589,124.204723 L12.5548026,126.264289 C11.3260009,127.613687 10.3714659,128.389398 9.78837898,128.514313 C7.98224914,128.901398 2.04052109,133.733783 2.04052109,134.815614 C2.04052109,134.982169 2.48683457,135.828048 3.03248878,136.695518 C4.01005925,138.251566 4.17922645,139.827663 3.42481272,140.362024 C3.0447264,140.631133 2.77477874,142.804819 3.12175147,142.804819 C3.28228035,142.804819 3.6234942,142.462458 3.87904465,142.04453 C5.72404695,139.028819 8.86335832,142.248096 9.64008773,147.952578 C9.83948907,149.415325 9.38453728,150.025253 8.76833674,149.122313 C8.40912638,148.596434 8.35009783,148.593349 7.85339413,149.075277 C7.56113079,149.359036 6.91613584,149.590361 6.41943213,149.590361 C4.66369253,149.590361 4.20946059,153.88453 5.71180932,156.282602 C8.68699251,161.031711 10.2555684,163.274795 11.7291227,164.886361 C12.6555831,165.900337 13.764888,167.211181 14.193205,167.798747 C14.621522,168.386313 15.6746778,169.672482 16.5334713,170.656386 C18.0221427,172.362024 18.4389419,173.364434 18.4504596,175.266699 C18.4518993,175.562795 18.0185434,176.326169 17.4872864,176.963084 C15.5400639,179.295614 15.3032298,181.109976 16.7083974,182.935904 C18.1085259,184.754892 17.6067832,187.877783 15.5530214,190.133976 C14.8360404,190.921253 15.2686765,192.980819 16.4377298,194.351036 C17.071207,195.09359 17.5895065,195.809928 17.5895065,195.942554 C17.5895065,196.597205 21.7099877,200.173494 22.4644014,200.173494 C22.6335686,200.173494 22.7725017,200.312289 22.7725017,200.481928 C22.7725017,200.651566 22.9423888,200.790361 23.1504284,200.790361 C23.3577482,200.790361 23.8033418,201.065639 24.1409564,201.402602 C24.9738349,202.233831 26.7151773,203.257831 27.2961047,203.257831 C29.2332491,203.257831 31.1207232,204.698988 33.138492,207.717783 C34.881994,210.32559 38.9967162,214.796337 41.3053086,216.590651 C42.1187509,217.22294 42.9789842,217.97012 43.2165381,218.250024 C43.4540921,218.530699 44.2884103,219.515373 45.0708986,220.439133 C46.8827873,222.576578 47.6695948,222.99759 49.8493322,222.99759 C51.5849157,222.99759 51.6425045,223.025349 53.21324,224.616867 C54.0914697,225.50747 54.9553023,226.380337 55.1323879,226.555373 C58.5445264,229.945831 62.8831253,231.25359 64.9239296,229.507084 C66.3996435,228.244819 66.1311355,228.106024 71.7539654,233.038651 C72.9244585,234.065735 74.3361048,235.238554 74.8903973,235.644916 C75.4446899,236.052048 75.9629894,236.469205 76.042174,236.57253 C76.4978457,237.167807 80.5254649,238.95441 82.9528342,239.638361 C83.6654961,239.838843 84.6373077,240.128771 85.1124156,240.282217 C86.0165603,240.573687 87.0862729,240.290699 88.9715874,239.262072 C90.3760351,238.496386 90.8453841,238.581205 92.7091028,239.936771 C93.6233255,240.602217 94.8470882,241.434988 95.4287355,241.787373 C96.0103827,242.14053 96.9721163,242.728096 97.5660011,243.09359 C98.159886,243.459084 99.3361379,244.151518 100.180534,244.631904 C101.024211,245.112289 102.06081,245.768482 102.484088,246.090024 C105.182125,248.139566 110.599794,250.886169 112.899028,251.371181 C114.394898,251.687325 115.001741,252.000386 115.922442,252.930313 C117.402475,254.426217 118.814842,255.252819 120.37046,255.535036 L121.611499,255.759422 L121.407779,254.012145 C121.24653,252.628819 121.305559,252.091373 121.691404,251.433639 C122.427101,250.179084 126.384174,246.13012 126.874399,246.13012 C127.110513,246.13012 127.553227,245.963566 127.858448,245.759229 C128.289645,245.470843 128.575429,245.470843 129.149878,245.759229 C129.555879,245.963566 130.244066,246.298988 130.679581,246.50641 C131.115097,246.71306 131.989727,247.238169 132.623204,247.672289 C133.256682,248.10641 134.131312,248.631518 134.566828,248.838169 C135.002343,249.04559 135.68765,249.37947 136.089332,249.581494 C137.625515,250.352578 142.745162,249.870651 143.83863,248.852048 C143.989081,248.712482 144.757892,248.59759 145.547579,248.59759 C146.528029,248.59759 147.171584,248.41947 147.577585,248.034699 C147.904402,247.725494 148.690489,247.319904 149.323967,247.134843 C152.14078,246.310554 152.923269,246.014458 152.923269,245.772337 C152.923269,245.629687 153.085237,245.513253 153.283199,245.512482 C153.481161,245.512482 154.096641,245.096096 154.650934,244.587952 C155.623465,243.696578 157.530376,243.268627 157.530376,243.941783 C157.530376,244.096 158.184009,244.724434 158.982334,245.338988 C160.729435,246.683759 160.959071,247.191133 160.144189,247.904386 C159.56902,248.407904 159.558942,248.489639 159.9851,249.137349 C160.598421,250.068048 161.189426,250.010988 162.09933,248.936096 C162.725608,248.195855 163.138088,248.017735 164.477029,247.911325 C166.491918,247.75094 168.654379,246.644434 170.852833,244.65041 C172.407011,243.241639 173.260766,242.673349 174.663054,242.118169 C176.133009,241.536 178.431523,240.368578 180.182224,239.315277 C181.243298,238.676819 182.442586,238.545735 182.725491,239.036145 C183.440312,240.274506 189.501537,235.479133 191.466036,232.120289 C191.680555,231.754024 192.231248,231.222747 192.689799,230.941301 C193.14835,230.659084 193.523397,230.214169 193.523397,229.952 C193.523397,229.662843 193.778948,229.473928 194.171272,229.473157 C194.930005,229.471614 197.062231,228.361253 198.451562,227.243952 C198.987138,226.812145 200.085645,226.105831 200.891889,225.673253 C201.698133,225.241446 202.788001,224.358554 203.314939,223.711614 C203.841157,223.064675 204.4444,222.464 204.654599,222.377639 C205.092994,222.197205 207.278491,220.242506 208.716052,218.744289 C209.251628,218.186024 210.036996,217.652434 210.460994,217.558361 C210.920984,217.456578 211.550862,216.901398 212.020931,216.182747 C212.581702,215.326843 213.019378,214.978313 213.532638,214.978313 C213.930001,214.978313 214.255378,214.842602 214.255378,214.676819 C214.255378,214.204916 220.346117,207.575904 220.779473,207.575904 C220.991832,207.575904 221.166038,207.276723 221.166038,206.911229 C221.166038,206.545735 221.469819,205.81706 221.841267,205.291952 C222.212715,204.766843 223.080147,202.949398 223.769773,201.253012 C225.141108,197.88106 226.981791,194.009446 227.826907,192.723277 C228.122769,192.272964 228.364643,191.800289 228.364643,191.672289 C228.364643,191.544289 228.905978,190.688386 229.567529,189.770024 C231.049002,187.712771 231.356383,184.207422 230.209645,182.437012 C227.841304,178.778217 228.047184,176.685494 231.125307,173.140048 C231.297354,172.94188 231.861725,172.072867 232.378584,171.209253 C232.896164,170.344867 233.469893,169.638554 233.653457,169.638554 C233.837022,169.638554 234.244463,169.268434 234.559042,168.816578 C235.432952,167.562024 235.851911,167.171084 236.324139,167.171084 C237.288033,167.171084 242.185963,159.205783 242.185963,157.63894 C242.185963,157.053687 244.648606,152.403277 246.774353,148.973494 C247.983719,147.022651 249.404004,144.524337 249.930941,143.421687 C250.457159,142.319036 251.132388,141.186313 251.43185,140.904867 C251.731312,140.623422 251.976065,140.183133 251.976065,139.927133 C251.976065,139.660337 252.345353,139.374265 252.839897,139.257831 C253.376193,139.131373 253.70589,138.859181 253.708769,138.539181 C253.711648,138.256193 254.098213,137.33012 254.567562,136.481928 C256.159894,133.606554 255.316937,131.206169 250.994175,126.303614 C248.795002,123.810699 248.481142,123.302554 247.911013,121.313157 C247.429426,119.632964 246.865776,118.553446 245.577225,116.840867 C241.362443,111.23894 239.970233,107.98188 240.970839,106.060337 C241.268141,105.488964 241.604316,104.674699 241.718054,104.250602 C243.964018,95.8612048 243.964738,95.8635181 235.896542,87.286747 C232.624777,83.8091566 229.191042,80.0007711 228.266022,78.8233253 L226.583708,76.6827952 L226.719761,74.0426024 C226.88389,70.8641928 227.584314,66.1921928 228.366802,63.0646747 C229.377486,59.0249639 228.979403,56.1110361 227.122883,53.9743614 C226.047412,52.736 222.008995,48.8967711 220.458415,47.6383614 C219.673048,47.0006747 218.516952,45.9805301 217.889233,45.3698313 C216.454552,43.9757108 213.432578,40.9746506 211.694834,39.2188916 C209.643232,37.1462169 207.097086,35.1892048 205.087235,34.138988 C203.31206,33.2121446 201.009946,30.9058313 201.009946,30.0545542 C201.009946,29.8378795 200.912765,29.6150361 200.793988,29.5579759 C200.675211,29.5016867 200.273529,28.8123373 199.902081,28.0258313 C198.946106,26.0048193 197.093905,25.225253 196.335892,26.5253012 C195.77728,27.482988 195.304332,27.2986988 192.370901,24.9823614 C188.281374,21.7522892 187.764514,21.2911807 187.764514,20.873253 C187.764514,19.026506 183.588604,13.5710843 182.174798,13.5710843 C180.56231,13.5710843 178.186771,11.2223614 177.243034,8.69551807 C176.977405,7.98457831 176.580042,7.40240964 176.359765,7.40240964 C176.138768,7.40240964 175.958803,7.26361446 175.958803,7.0939759 C175.958803,5.99518072 173.663888,7.50496386 172.071556,9.65089157 C170.699502,11.5007229 170.055227,12.2039518 168.679574,13.357494 C168.089288,13.8525301 167.56739,14.6120482 167.46085,15.130988 C167.263609,16.090988 166.168701,16.4680482 166.168701,15.5759036 C166.168701,15.3214458 166.059282,15.113253 165.924668,15.113253 C165.445241,15.113253 164.563412,14.0090602 163.876665,12.5470843 C162.436224,9.4820241 160.59986,9.07257831 159.131345,11.4891566 C158.418683,12.6619759 157.421677,12.6203373 156.948728,11.3973976 C156.748607,10.88 156.155442,9.94313253 155.630664,9.31546988 C155.105886,8.68703614 154.383866,7.54891566 154.026815,6.78554217 C151.071788,0.468048193 147.638773,-0.54053012 143.637069,3.73359036 C142.984156,4.4306506 142.557278,5.18091566 142.557278,5.632 C142.557278,7.04 138.880951,9.86987952 137.051786,9.86987952 C136.104449,9.86987952 135.646618,9.03171084 135.646618,7.29677108 C135.646618,5.49706024 133.636048,3.98727711 132.911149,5.24337349 C132.546179,5.87566265 131.647794,5.51633735 130.79044,4.39518072 C129.308967,2.45898795 128.807944,1.98708434 127.417174,1.22139759 L126.081113,0.485012048 L124.965329,1.13966265 L123.848826,1.79431325 L122.38391,1.01243373 C120.880121,0.20973494 118.673749,0.168096386 117.963966,0.928385542 C117.509735,1.41493976 116.774037,1.28462651 116.210386,0.61686747 C115.585548,-0.12260241 115.666172,-0.124144578 114.050805,0.65773494" id="path0" fill="#FFFFFF"></path>
            <path d="M176.263729,145.109171 C176.782648,145.985894 177.569099,147.061557 178.011141,147.499533 C178.453183,147.937508 179.045904,149.094135 179.328811,150.069557 C179.610949,151.044978 180.19675,152.564014 180.629567,153.444593 C181.357591,154.928159 181.389111,155.157171 181.045471,156.52893 C180.820991,157.424159 180.650324,160.762183 180.614192,164.951484 C180.518865,176.100593 180.03454,177.456159 175.265099,179.9244 C172.216931,181.501267 171.187549,181.732593 167.521291,181.662424 C165.745435,181.628496 160.084991,181.549846 154.943465,181.487388 C146.052654,181.379436 143.07675,181.120352 141.580726,180.32228 C141.190961,180.114858 140.728162,180.134135 140.126985,180.383966 C139.148342,180.790328 138.101279,180.693171 135.448258,179.948304 C134.468078,179.673027 132.967441,179.44787 132.114108,179.44787 C130.897147,179.44787 130.531213,179.331436 130.417435,178.908111 C130.337483,178.611243 129.810877,178.021364 129.245832,177.597267 C127.692919,176.430617 127.244726,175.364207 126.585892,171.274376 C125.869399,166.823677 125.877087,166.660207 126.827285,165.846713 C127.306997,165.435725 127.902024,164.707822 128.149567,164.228978 C128.962156,162.655195 129.998456,162.170954 132.399321,162.243436 C133.608594,162.279677 134.732534,162.159388 134.967778,161.968159 C135.668126,161.39987 137.796078,161.214039 146.457027,160.964978 C155.599994,160.70281 156.558648,160.56093 159.832835,158.985605 C161.297339,158.280834 161.710168,157.991677 163.53215,156.392448 C164.160234,155.841123 164.822913,155.390039 165.004342,155.390039 C165.185772,155.390039 165.86075,154.814039 166.50421,154.109267 C167.808042,152.683533 169.144931,151.332593 170.478744,150.094231 C171.25597,149.372496 172.409892,147.369219 173.468486,144.903292 C174.341039,142.872255 174.966048,142.91852 176.263729,145.109171" id="path0-path" fill="#373937"></path>
            <path d="M159.643233,80.2374878 C160.390476,80.8050059 161.228434,81.1573914 161.84268,81.162789 C162.620674,81.1697288 162.932794,81.3632709 163.294884,82.0649577 C163.753839,82.9555601 166.475281,84.8724758 167.280182,84.8724758 C167.932866,84.8724758 168.184254,85.8818252 167.633046,86.2866444 C166.659016,87.0006685 167.05647,87.6028854 168.384902,87.4239938 C169.673359,87.2504999 170.176902,88.1950782 169.276674,89.0980179 C169.090632,89.2846203 168.938416,89.9508372 168.938416,90.5784999 C168.938416,91.2061625 169.090632,91.8723794 169.276674,92.0589818 C169.471941,92.2548372 169.614932,93.5533432 169.614932,95.1263553 L169.614932,97.8544517 L166.905022,100.693584 C165.415149,102.25503 163.311797,104.643078 162.232446,106.000187 C158.127221,111.159512 153.127917,116.575608 150.395713,118.823319 C149.888326,119.240476 148.852794,120.412524 148.094788,121.427271 C144.848278,125.772331 142.1622,128.831223 134.69438,136.689343 C132.02829,139.494548 126.647677,145.872187 124.461299,148.816958 C123.728662,149.804717 122.607797,150.984476 121.970488,151.438644 C121.333179,151.893584 120.341467,152.880572 119.767197,153.632379 C119.192926,154.384958 117.826824,155.842307 116.732098,156.870934 C110.355161,162.866114 109.035953,164.265632 109.025959,165.045199 C109.013659,166.066114 108.607749,166.56115 106.729647,167.847319 C104.830019,169.148909 102.885803,171.10515 102.885803,171.715849 C102.885803,173.191705 100.592566,175.216572 99.4278813,174.768572 C99.1903318,174.676813 98.3377672,174.885006 97.5328663,175.231223 C94.9428843,176.344669 93.045563,175.615223 93.045563,173.505536 C93.045563,172.853199 92.9079534,172.77609 91.7378873,172.77609 C90.7361816,172.77609 90.0750405,172.523175 88.9157372,171.696572 C88.0831606,171.102837 87.1667882,170.617054 86.8792687,170.617054 C86.5909804,170.617054 86.1758453,170.400379 85.9567462,170.135126 C85.6008062,169.704861 85.5293107,169.703319 85.295605,170.122018 C84.8304999,170.957102 84.1170825,170.279319 82.9908363,167.931367 C82.3850465,166.66756 81.6316531,165.472379 81.3172267,165.274982 C80.3301276,164.657343 80.5807462,162.94862 81.9752927,160.784958 C83.3437011,158.66062 83.5059113,157.81397 82.5903077,157.573391 C81.3964098,157.260331 81.8138513,155.927897 83.4828483,154.725006 C84.311581,154.127416 85.0672807,153.438066 85.1610705,153.19209 C85.2548603,152.946885 86.0320855,152.241343 86.8884939,151.624476 C87.7456711,151.006066 88.407581,150.298211 88.3622236,150.048379 C88.3160975,149.798548 89.0287462,149.015126 89.9458873,148.308042 C90.9414429,147.539271 91.7301996,146.64944 91.9062477,146.096572 C92.0676891,145.587656 93.74053,143.575126 95.6232447,141.624283 C97.5059594,139.67344 100.761695,136.134163 102.858128,133.759223 C104.95456,131.384283 109.670956,126.457054 113.339521,122.809825 C117.008086,119.162596 120.75814,115.2825 121.672206,114.18756 C123.907785,111.511897 125.679797,109.560283 128.255173,106.937825 C129.439077,105.73262 132.601791,102.28356 135.283257,99.2724758 C137.965491,96.2621625 140.663869,93.4207167 141.279653,92.9596083 C141.896206,92.4984999 144.453899,90.2469336 146.963929,87.9568131 C157.021731,78.7801384 157.410728,78.5434155 159.643233,80.2374878" id="path0-path" fill="#373937"></path>
            <path d="M107.701131,74.2730894 C107.994801,74.4311617 111.707954,74.7118364 115.953095,74.8961255 C123.729191,75.2338605 125.947089,75.5299569 129.883185,76.7513545 C132.318645,77.5077882 132.305576,77.4869689 132.992086,81.6963183 C133.199654,82.9686075 133.490249,84.4953545 133.638621,85.0890894 C134.025312,86.6335713 133.975342,88.6036918 133.538681,89.0416677 C133.332651,89.2483183 133.159678,89.8659569 133.154297,90.4141978 C133.144303,91.3125111 133.051282,91.4127521 132.221011,91.4227761 C131.084771,91.4358846 128.946825,91.8754027 128.530921,92.1815231 C128.161143,92.454487 126.17157,92.7706316 123.465504,92.9873063 C122.370777,93.0744388 121.332939,93.2579569 121.159198,93.3944388 C120.641816,93.8000292 119.171161,94.0791617 116.076867,94.3582942 C113.290849,94.6096677 112.007005,94.8170894 108.542933,95.5758364 C106.900843,95.9351617 105.264134,96.2605593 102.546537,96.7671617 C98.918717,97.4434027 96.5124708,98.1574268 94.0162786,99.2978605 C93.2997861,99.6255713 92.6463326,99.8939087 92.5656119,99.8939087 C92.3634257,99.8939087 87.3418281,102.878005 86.1417801,103.710776 C82.1603266,106.474342 81.9781284,106.655547 82.1472576,107.698824 C82.4655278,109.665089 80.2191855,110.467017 77.5392576,109.343547 L76.4529873,108.888607 L76.3015398,106.165138 C76.217744,104.666921 75.9940323,102.538728 75.8033777,101.436077 C75.612723,100.333427 75.3820924,98.1127039 75.2913777,96.5011376 C75.1998942,94.8895713 74.9984768,93.4391617 74.8439543,93.2780051 C74.4649513,92.8824388 74.485708,90.7249448 74.8708612,90.4866798 C75.0399903,90.3818123 75.1783687,89.9608002 75.1783687,89.5513545 C75.1783687,89.1419087 75.5273897,88.2135231 75.9540564,87.4879328 C76.9465368,85.8000292 77.4731434,84.6264388 77.9297921,83.0842701 C78.5109813,81.1226316 79.5449753,79.2219087 80.3921585,78.5564629 C84.4151254,75.3973304 85.9749573,74.7072099 88.3043266,75.0572822 C89.1115338,75.1791135 90.058657,75.1043183 90.7090353,74.8683665 C91.544687,74.5653304 91.8652636,74.5607039 92.1527831,74.8490894 C92.5763747,75.2739569 94.1277501,75.3487521 94.3699122,74.9562701 C94.7089392,74.4057159 99.2569753,74.3185834 101.524843,74.818246 C103.665095,75.2893786 103.781948,75.2847521 105.064255,74.6609448 C106.576423,73.9261015 106.953888,73.8705834 107.701131,74.2730894" id="path0-path" fill="#373937"></path>
        </g>
    </g>
</svg>
