<?xml version="1.0" encoding="UTF-8"?>
<svg width="14600px" height="7860px" viewBox="0 0 14600 7860" version="1.1" xmlns="http://www.w3.org/2000/svg" xmlns:xlink="http://www.w3.org/1999/xlink">
    <!-- Generator: Sketch 43.2 (39069) - http://www.bohemiancoding.com/sketch -->
    <title>Group</title>
    <desc>Created with Sketch.</desc>
    <defs></defs>
    <g id="Page-1" stroke="none" stroke-width="1" fill="none" fill-rule="evenodd">
        <g id="Group" fill-rule="nonzero">
            <g id="layer101" fill="#C83047">
                <path d="M0,3930 L0,0 L7300,0 L14600,0 L14600,3930 L14600,7860 L7300,7860 L0,7860 L0,3930 Z M14305,3930 L14305,295 L7300,295 L295,295 L292,3920 C291,5914 292,7551 295,7558 C298,7568 1705,7570 7302,7568 L14305,7565 L14305,3930 Z" id="Shape"></path>
                <path d="M400,3930 L400,400 L7300,400 L14200,400 L14200,3930 L14200,7460 L7300,7460 L400,7460 L400,3930 Z M11307,7049 C11848,7005 12317,6777 12735,6356 C12807,6284 12903,6178 12949,6121 C13304,5675 13557,5113 13664,4535 C13711,4286 13715,4235 13715,3945 C13714,3707 13711,3643 13692,3518 C13628,3098 13505,2714 13319,2353 C13068,1867 12732,1475 12340,1212 C11830,870 11223,760 10650,904 C10503,942 10408,976 10265,1045 C10016,1163 9820,1302 9601,1515 C9337,1773 9132,2055 8955,2408 C8707,2904 8570,3454 8570,3954 C8571,4792 8952,5720 9544,6329 C9964,6759 10449,7003 10980,7049 C11119,7061 11165,7061 11307,7049 Z M3930,7010 C4269,6980 4607,6896 4910,6768 C5007,6727 5204,6629 5273,6588 L5311,6566 L5478,6733 L5645,6900 L5708,6900 L5770,6900 L5770,6030 L5770,5160 L5690,5160 C5621,5160 5610,5162 5610,5178 C5610,5231 5533,5483 5473,5630 C5188,6326 4689,6744 4020,6846 C3880,6867 3570,6867 3435,6846 C2839,6753 2465,6400 2244,5722 C2168,5486 2111,5186 2065,4778 C2026,4438 2003,3620 2020,3175 C2035,2757 2053,2567 2105,2300 C2267,1472 2683,1026 3378,935 C3598,906 3897,920 4104,969 C4613,1090 4999,1415 5250,1935 C5337,2115 5412,2342 5446,2528 L5463,2620 L5558,2620 L5653,2620 L5647,2373 C5643,2236 5636,1882 5630,1585 C5624,1288 5617,1017 5614,983 L5608,920 L5552,920 L5495,921 L5272,1126 L5049,1332 L5012,1300 C4726,1060 4384,905 4000,841 C3403,742 2840,845 2329,1146 C1606,1573 1070,2425 926,3375 C888,3624 885,3670 885,3980 C886,4321 898,4447 956,4710 C1187,5748 1906,6570 2854,6881 C3197,6994 3586,7040 3930,7010 Z M8570,6810 L8570,6720 L8193,6718 L7815,6715 L7812,3893 L7810,1070 L8190,1070 L8570,1070 L8570,995 L8570,920 L7340,920 L6110,920 L6110,995 L6110,1070 L6485,1070 L6860,1070 L6860,3895 L6860,6720 L6485,6720 L6110,6720 L6110,6810 L6110,6900 L7340,6900 L8570,6900 L8570,6810 Z" id="Shape"></path>
                <path d="M10990,6860 C10280,6809 9890,6399 9766,5575 C9714,5229 9709,5088 9709,3944 C9709,2794 9714,2640 9766,2295 C9858,1688 10093,1298 10472,1126 C10678,1033 10859,998 11145,998 C11396,998 11578,1026 11742,1091 C12222,1280 12479,1701 12575,2455 C12613,2762 12615,2821 12615,3935 C12615,5020 12613,5099 12579,5380 C12488,6147 12228,6578 11741,6770 C11557,6842 11251,6879 10990,6860 Z" id="Shape"></path>
            </g>
            <g id="layer102" transform="translate(291.000000, 295.000000)" fill="#FFFEFE">
                <path d="M4,7263 C1,7256 0,5619 1,3625 L4,0 L7009,0 L14014,0 L14014,3635 L14014,7270 L7011,7273 C1414,7275 7,7273 4,7263 Z M13909,3635 L13909,105 L7009,105 L109,105 L109,3635 L109,7165 L7009,7165 L13909,7165 L13909,3635 Z" id="Shape"></path>
                <path d="M10689,6754 C10158,6708 9673,6464 9253,6034 C8661,5425 8280,4497 8279,3659 C8278,3008 8507,2292 8903,1705 C9072,1454 9342,1164 9552,1007 C10128,575 10770,444 11424,627 C12074,808 12646,1319 13028,2058 C13214,2419 13337,2803 13401,3223 C13420,3348 13423,3412 13424,3650 C13424,3940 13420,3991 13373,4240 C13195,5200 12634,6061 11916,6474 C11633,6636 11341,6727 11016,6754 C10874,6766 10828,6766 10689,6754 Z M11119,6554 C11569,6498 11901,6264 12084,5871 C12208,5606 12266,5350 12311,4865 C12330,4668 12329,2607 12311,2410 C12269,1970 12221,1735 12119,1480 C11970,1105 11692,852 11322,755 C11168,715 11062,703 10854,703 C10696,703 10629,708 10534,724 C9920,832 9591,1228 9475,2000 C9423,2345 9418,2499 9418,3649 C9418,4793 9423,4934 9475,5280 C9599,6104 9989,6514 10699,6565 C10819,6574 10995,6569 11119,6554 Z" id="Shape"></path>
                <path d="M3194,6714 C2747,6674 2333,6536 1967,6307 C1317,5900 842,5210 665,4415 C607,4152 595,4026 594,3685 C594,3375 597,3329 635,3080 C708,2598 894,2108 1153,1715 C1570,1083 2160,674 2834,550 C3283,468 3761,512 4167,674 C4383,760 4544,856 4721,1005 L4758,1037 L4981,831 L5204,626 L5261,625 L5317,625 L5323,688 C5326,722 5333,993 5339,1290 C5345,1587 5352,1941 5356,2078 L5362,2325 L5267,2325 L5172,2325 L5155,2233 C5094,1897 4934,1532 4734,1270 C4664,1178 4520,1034 4427,963 C4130,736 3779,625 3353,625 C2711,625 2272,877 2014,1394 C1781,1859 1698,2507 1728,3620 C1738,3986 1756,4325 1774,4483 C1809,4795 1834,4951 1885,5172 C2059,5928 2415,6370 2965,6515 C3238,6587 3632,6586 3914,6514 C4269,6423 4562,6243 4797,5971 C5025,5707 5201,5362 5294,4996 C5308,4943 5319,4892 5319,4883 C5319,4867 5330,4865 5399,4865 L5479,4865 L5479,5735 L5479,6605 L5417,6605 L5354,6605 L5187,6438 L5020,6271 L4982,6293 C4913,6334 4716,6432 4619,6473 C4166,6665 3639,6754 3194,6714 Z" id="Shape"></path>
                <polygon id="Shape" points="5819 6515 5819 6425 6194 6425 6569 6425 6569 3600 6569 775 6194 775 5819 775 5819 700 5819 625 7049 625 8279 625 8279 700 8279 775 7899 775 7519 775 7521 3598 7524 6420 7902 6423 8279 6425 8279 6515 8279 6605 7049 6605 5819 6605"></polygon>
            </g>
        </g>
    </g>
</svg>
