<?xml version="1.0" encoding="UTF-8"?>
<svg width="6189px" height="1193px" viewBox="0 0 6189 1193" version="1.1" xmlns="http://www.w3.org/2000/svg" xmlns:xlink="http://www.w3.org/1999/xlink">
    <!-- Generator: Sketch 43.2 (39069) - http://www.bohemiancoding.com/sketch -->
    <title>Group</title>
    <desc>Created with Sketch.</desc>
    <defs></defs>
    <g id="Page-1" stroke="none" stroke-width="1" fill="none" fill-rule="evenodd">
        <g id="Group" fill-rule="nonzero">
            <g id="layer101" fill="#231F20">
                <path d="M390,1178 C174,1117 17,911 2,667 C-9,486 49,333 178,202 C316,63 466,2 669,2 C856,3 949,44 949,128 C949,158 941,173 910,204 C846,268 793,258 675,157 C558,56 431,59 330,163 C156,343 172,708 363,899 C454,989 575,1043 690,1043 C749,1043 853,1011 901,978 C933,956 942,955 963,965 C978,971 989,980 989,984 C989,997 893,1076 836,1111 C744,1167 676,1186 554,1189 C477,1192 428,1188 390,1178 Z" id="Shape"></path>
                <path d="M3195,1182 C3012,1139 2844,962 2799,764 C2782,691 2785,522 2804,448 C2858,238 3012,76 3211,18 C3278,-1 3426,-4 3489,13 C3593,41 3675,105 3719,192 C3744,243 3769,331 3769,368 C3769,381 3715,383 3395,383 C3164,383 3018,387 3014,393 C3011,398 3008,455 3007,520 C3006,661 3026,737 3090,833 C3184,974 3366,1054 3522,1023 C3602,1007 3651,982 3714,922 C3769,870 3778,866 3797,885 C3813,901 3739,1004 3666,1065 C3557,1156 3454,1194 3320,1192 C3273,1191 3217,1187 3195,1182 Z M3302,317 L3521,311 L3514,284 C3502,229 3447,133 3412,104 C3330,36 3227,41 3141,118 C3092,162 3044,243 3033,302 C3026,334 3027,335 3055,330 C3071,327 3182,321 3302,317 Z" id="Shape"></path>
                <path d="M4039,716 C3933,453 3834,213 3818,182 C3785,115 3752,87 3692,72 C3660,64 3649,56 3649,42 C3649,24 3661,23 3919,23 C4177,23 4189,24 4189,42 C4189,57 4179,62 4145,67 C4082,77 4049,105 4049,150 C4049,182 4308,866 4328,886 C4332,890 4389,768 4453,614 C4586,301 4580,335 4522,203 C4489,129 4455,95 4392,77 C4352,65 4339,57 4339,42 C4339,24 4349,23 4614,23 C4872,23 4889,24 4889,41 C4889,55 4876,62 4830,71 C4763,85 4739,106 4739,152 C4739,181 4991,869 5008,886 C5024,902 5245,372 5280,233 C5308,121 5288,84 5192,68 C5159,63 5149,57 5149,42 C5149,24 5159,23 5369,23 C5578,23 5589,24 5589,42 C5589,56 5577,64 5544,72 C5480,88 5425,142 5380,232 C5359,274 5253,507 5144,751 C4974,1129 4942,1193 4925,1193 C4906,1193 4884,1143 4754,808 C4671,597 4601,423 4598,423 C4595,423 4521,596 4434,808 C4293,1152 4274,1193 4254,1193 C4234,1193 4212,1145 4039,716 Z" id="Shape"></path>
                <path d="M5612,1178 C5535,1157 5460,1116 5450,1089 C5445,1077 5439,1008 5437,937 L5434,808 L5460,805 C5483,802 5487,808 5503,860 C5557,1031 5657,1124 5789,1124 C5912,1125 5989,1047 5989,922 C5989,822 5933,758 5776,677 C5520,546 5459,475 5459,313 C5459,154 5586,26 5764,4 C5847,-6 5949,6 6021,33 C6114,68 6116,71 6122,200 L6128,313 L6103,319 C6071,327 6067,323 6039,245 C6011,169 5944,89 5893,73 C5845,57 5764,65 5731,90 C5689,121 5659,181 5659,236 C5659,325 5707,386 5836,461 C5873,482 5938,519 5978,543 C6073,598 6134,654 6165,715 C6184,753 6189,778 6189,841 C6189,909 6185,928 6159,981 C6111,1076 6018,1146 5894,1179 C5830,1197 5679,1196 5612,1178 Z" id="Shape"></path>
                <path d="M1491,1151 C1493,1134 1505,1127 1547,1117 C1618,1102 1647,1085 1667,1048 C1682,1022 1684,971 1687,663 C1689,428 1687,296 1680,271 C1673,248 1649,217 1613,184 C1582,156 1559,128 1561,121 C1566,106 1869,-6 1887,1 C1901,6 1900,42 1883,157 L1877,195 L1950,145 C2107,40 2209,2 2339,2 C2473,2 2553,40 2604,127 C2651,206 2652,221 2658,628 C2664,996 2665,1020 2684,1053 C2704,1087 2746,1107 2842,1128 C2860,1132 2869,1140 2869,1153 C2869,1173 2861,1173 2563,1173 L2258,1173 L2261,1151 C2263,1133 2273,1127 2305,1122 C2368,1111 2416,1087 2436,1057 C2452,1031 2454,1002 2454,698 C2454,323 2450,296 2377,217 C2322,158 2266,138 2154,138 C2054,138 2001,156 1928,214 L1888,246 L1891,637 C1894,990 1896,1032 1911,1056 C1934,1090 1961,1104 2029,1118 C2074,1127 2085,1134 2087,1151 L2090,1173 L1789,1173 L1488,1173 L1491,1151 Z" id="Shape"></path>
            </g>
            <g id="layer102" transform="translate(834.000000, 278.000000)" fill="#17479D">
                <path d="M218,627 C43,565 -47,363 25,198 C50,140 64,129 57,173 C46,248 112,315 196,315 C315,315 370,169 281,88 C252,61 237,55 200,55 C175,55 155,51 155,47 C155,42 174,29 197,19 C229,5 262,0 330,0 C408,0 427,4 470,27 C532,59 600,131 628,193 C655,254 657,360 632,432 C608,501 539,577 469,611 C395,647 292,654 218,627 Z" id="Shape"></path>
            </g>
        </g>
    </g>
</svg>
