<?xml version="1.0" encoding="UTF-8"?>
<svg width="167px" height="167px" viewBox="0 0 167 167" version="1.1" xmlns="http://www.w3.org/2000/svg" xmlns:xlink="http://www.w3.org/1999/xlink">
    <!-- Generator: Sketch 43.2 (39069) - http://www.bohemiancoding.com/sketch -->
    <title>Group 2</title>
    <desc>Created with Sketch.</desc>
    <defs></defs>
    <g id="Page-1" stroke="none" stroke-width="1" fill="none" fill-rule="evenodd">
        <g id="Group-2">
            <rect id="Rectangle" fill="#2F2F2F" x="0" y="0" width="167" height="167"></rect>
            <g id="Group" transform="translate(16.000000, 20.000000)" fill-rule="nonzero">
                <path d="M79.2698565,93.1376147 L56.4797727,103.045872 L56.4797727,102.055046 C52.0863364,103.179399 47.2167262,103.828326 42.6075479,104.036697 C21.173558,103.828326 4.16074286,92.6111588 3.96349282,79.266055 L3.96349282,74.3119266 C11.0028533,84.5459228 25.334301,91.4060086 42.6075479,91.1559633 C48.449539,91.4060086 54.4286805,90.4789699 59.4523924,89.1743119 L61.4341388,84.2201835 C55.4765714,85.9982832 48.9734844,87.2343348 42.6075479,87.1926606 C21.173558,87.2343348 4.16074286,76.0171674 3.96349282,62.4220183 L3.96349282,58.4587156 C11.0028533,67.9210301 25.3034805,74.7811158 42.6075479,74.3119266 C50.3912189,74.7811158 58.0038373,73.1433477 64.4067584,70.3486239 L65.3976316,65.3944954 C59.1441892,68.6935623 51.0384457,70.6094421 42.6075479,70.3486239 C21.173558,70.6094421 4.16074286,59.3922747 3.96349282,45.5779817 L3.96349282,41.6146789 C11.0028533,51.2961373 25.334301,58.1562231 42.6075479,58.4587156 C52.42536,58.1562231 61.7330959,55.5605151 69.3611244,51.5229358 L70.3519976,45.5779817 C63.4282134,50.7090129 53.3191492,54.0154506 42.6075479,54.4954128 C21.173558,54.0154506 4.16074286,42.7982832 3.96349282,28.733945 C4.16074286,15.3579399 21.173558,4.14077253 42.6075479,3.96330275 C55.3841105,4.14077253 67.2499326,8.62145924 74.3154904,15.853211 L75.0035968,17 L80,17.0197348 L79.2698565,15.853211 C72.242824,6.30386266 58.1887593,0 42.6075479,0 C18.8928546,0 0,13.0712446 0,28.733945 L0,29.7247706 L0,80.2568807 C0.832148571,95.5467812 19.2935187,108 42.6075479,108 C58.0038373,108 71.8421599,101.943348 79.2698565,93.1376147 Z" id="Shape" fill="#FFFFFF"></path>
                <path d="M70,128 L78,94 L55,104 L69,45 L42,45 L49,16 L135,16 L128,45 L100,45 L94,61 L125,48 L70,128 Z M84,87 L80,107 L113,57 L86,69 L98,41 L125,41 L130,20 L52,20 L47,41 L74,41 L61,97 L84,87 Z" id="Shape" fill="#FABF2C"></path>
            </g>
        </g>
    </g>
</svg>
