<?xml version="1.0" encoding="utf-8"?>
<!-- Generator: Adobe Illustrator 20.0.0, SVG Export Plug-In . SVG Version: 6.00 Build 0)  -->
<svg version="1.1" id="Layer_1" xmlns="http://www.w3.org/2000/svg" xmlns:xlink="http://www.w3.org/1999/xlink" x="0px" y="0px"
	 viewBox="0 0 481 62" style="enable-background:new 0 0 481 62;" xml:space="preserve">
<style type="text/css">
	.st0{fill:#333333;}
</style>
<g>
	<polygon class="st0" points="40.4,19.4 40.4,5.8 19.3,5.8 19.3,55.1 28.8,55.1 28.8,59.5 0,59.5 0,55.1 9.5,55.1 9.5,5.8 0,5.8 
		0,1.4 47.4,1.4 47.4,19.4 	"/>
	<path class="st0" d="M108.7,55.7v4.4H89.8v-5.3c-4.2,4.4-11.6,6.7-17.8,6.7c-14,0-21.2-10.2-21.2-19.3c0-10.6,8.1-21.2,22.1-21.2
		c6.9,0,13.1,2.3,17,7.2v-9.1c0-11.5-7.1-14.4-13.1-14.4c-8.6,0-15.1,5.4-16.2,6.4L57,6.3C62.8,2,68.4,0.5,76.4,0.5
		C98.7,0.5,99,13.9,99,28.2v27.4H108.7z M89.8,36.4c-1.6-4.5-5.6-10.1-12.6-10.1c-8.6,0-16.3,5.7-16.3,16c0,8.6,7.5,13.8,14.7,13.8
		c5,0,11.5-3,14.2-9.6V36.4z"/>
	<path class="st0" d="M113.6,19.4V1.9h4.4v4.4L117.7,8h0.8l0.6-1.8c3-3,7.5-5.8,15.8-5.8c14.6,0,19.8,8.7,19.8,15
		c0,3.8-0.8,12-13.3,13.7v0.8c9,0.1,17.1,5.8,17.1,14.9c0,9.2-8.9,16.7-26.5,16.7c-9.7,0-18.3-2.6-23.7-12.3l5.4-4.5
		c2.3,8.2,9.9,12.8,19.6,12.8c9.6,0,14.3-6.8,14.3-12.5c0-12.3-10.7-12.8-16.6-12.8h-4.1v-4h3.9c7.6,0,14.3-3.4,14.3-12.1
		c0-6.2-4-11-10.3-11c-10.7,0-16.9,5.7-16.7,14.2H113.6z"/>
	<path class="st0" d="M176.2,32.2c0,6.5,1.8,24.4,19.9,24.4c8,0,14.3-2.8,20.9-9.4l3.2,3.4c-5.9,6.9-16.1,10.8-24.9,10.8
		c-14.6,0-30.3-9.1-30.3-30.7c0-20.6,14.6-30.2,27.8-30.2c14.2,0,28.4,9.6,27.4,31.7H176.2z M209.3,28.2c0-15-7.3-23.8-16.8-23.8
		c-9.8,0-16.8,10.6-16.3,23.8H209.3z"/>
	<polygon class="st0" points="239.1,55.7 248.5,55.7 248.5,6.4 232.4,6.4 232.4,19.5 225.5,19.5 225.5,2 281.4,2 281.4,19.5 
		274.4,19.5 274.4,6.4 258.4,6.4 258.4,55.7 267.8,55.7 267.8,60.1 239.1,60.1 	"/>
	<path class="st0" d="M343.6,55.7v4.4h-18.9v-5.3c-4.2,4.4-11.6,6.7-17.8,6.7c-14,0-21.2-10.2-21.2-19.3c0-10.6,8.1-21.2,22-21.2
		c6.9,0,13.1,2.3,17,7.2v-9.1c0-11.5-7.1-14.4-13.1-14.4c-8.6,0-15.1,5.4-16.2,6.4l-3.5-4.9c5.9-4.3,11.5-5.8,19.4-5.8
		c22.3,0,22.6,13.3,22.6,27.7v27.4H343.6z M324.6,36.4C323,31.9,319,26.3,312,26.3c-8.6,0-16.3,5.7-16.3,16
		c0,8.6,7.5,13.8,14.7,13.8c5,0,11.5-3,14.2-9.6V36.4z"/>
	<path class="st0" d="M355.5,46c4,0,6.1,3.5,6.1,7.8c0,4.2-2.1,7.7-6.1,7.7c-3.7,0-6.1-3.1-6.1-7.7C349.4,50,351.2,46,355.5,46"/>
	<path class="st0" d="M387.3,2.1v9.2h0.6c2.9-6.9,7-10.6,13.4-10.6c1.6,0,6.5,0.4,9.4,4.2l-5,8.1c-2.5-3.8-5.5-4.7-8-4.7
		c-5.7,0-10.5,7.9-10.5,16.7v30.8h9.5v4.4H368v-4.4h9.5V6.5H368V2.1H387.3z"/>
	<path class="st0" d="M434,1.7v39c0,3,0,15.4,12.7,15.4c8,0,14.9-4.9,14.9-16.7V6.1h-9.5V1.7h19.3v53.7h9.5v4.4h-19.3v-4.7l0.6-2.9
		h-0.7l-1.5,2.8c-5.5,5.8-12.3,6.4-17,6.4c-18.9,0-18.9-16.6-18.9-21.3V6.1h-9.5V1.7H434z"/>
</g>
</svg>
