<?xml version="1.0" encoding="UTF-8"?>
<svg width="6001px" height="5999px" viewBox="0 0 6001 5999" version="1.1" xmlns="http://www.w3.org/2000/svg" xmlns:xlink="http://www.w3.org/1999/xlink">
    <!-- Generator: Sketch 43.2 (39069) - http://www.bohemiancoding.com/sketch -->
    <title>Shape</title>
    <desc>Created with Sketch.</desc>
    <defs></defs>
    <g id="Page-1" stroke="none" stroke-width="1" fill="none" fill-rule="evenodd">
        <path d="M2695.91061,5989 C1368.91061,5853 292.910608,4863 45.910608,3550 C-17.089392,3212 -15.089392,2774 50.910608,2425 C266.910608,1296 1137.91061,371 2250.91061,90 C2516.91061,23 2709.91061,0 3000.91061,0 C3236.91061,0 3399.91061,15 3599.91061,56 C4703.91061,279 5586.91061,1100 5895.91061,2190 C5967.91061,2443 6000.91061,2701 6000.91061,3000 C6000.91061,3355 5953.91061,3653 5847.91061,3965 C5467.91061,5084 4472.91061,5872 3291.91061,5990 C3172.91061,6002 2813.91061,6001 2695.91061,5989 Z M3200.91061,5890 C3915.91061,5836 4547.91061,5546 5051.91061,5041 C5209.91061,4882 5287.91061,4787 5416.91061,4595 C5623.91061,4285 5767.91061,3938 5840.91061,3570 C5885.91061,3345 5894.91061,3244 5894.91061,2995 C5894.91061,2688 5865.91061,2478 5784.91061,2198 C5582.91061,1493 5107.91061,881 4470.91061,502 L4435.91061,481 L4435.91061,603 C4435.91061,715 4432.91061,733 4402.91061,820 C4320.91061,1055 4053.91061,1494 3763.91061,1867 C3624.91061,2047 3597.91061,2076 3176.91061,2500 C2719.91061,2960 2625.91061,3071 2479.91061,3325 C2313.91061,3614 2197.91061,3955 2144.91061,4310 C2120.91061,4468 2120.91061,4766 2143.91061,4918 C2197.91061,5265 2315.91061,5467 2515.91061,5555 C2873.91061,5714 3233.91061,5516 3535.91061,4995 C3868.91061,4421 4045.91061,3536 3919.91061,3071 C3881.91061,2930 3775.91061,2764 3699.91061,2725 C3600.91061,2673 3445.91061,2755 3315.91061,2928 C3076.91061,3247 2899.91061,3898 2897.91061,4465 C2896.91061,4779 2950.91061,4989 3045.91061,5040 C3113.91061,5076 3026.91061,5239 2914.91061,5286 C2865.91061,5306 2767.91061,5304 2722.91061,5281 C2610.91061,5224 2545.91061,5093 2514.91061,4859 C2492.91061,4692 2499.91061,4402 2529.91061,4244 C2629.91061,3711 2944.91061,3114 3324.91061,2735 C3597.91061,2463 3824.91061,2350 4095.91061,2350 C4272.91061,2350 4382.91061,2391 4486.91061,2494 C4643.91061,2651 4730.91061,2996 4700.91061,3345 C4652.91061,3907 4358.91061,4532 3903.91061,5035 C3560.91061,5414 3169.91061,5669 2771.91061,5772 C2671.91061,5798 2631.91061,5803 2480.91061,5808 C2310.91061,5813 2306.91061,5813 2360.91061,5826 C2616.91061,5886 2931.91061,5910 3200.91061,5890 Z M1873.91061,5650 C1793.91061,5597 1675.91061,5472 1618.91061,5380 C1288.91061,4850 1400.91061,3989 1897.91061,3242 C2141.91061,2874 2392.91061,2644 3000.91061,2230 C3396.91061,1961 3580.91061,1814 3718.91061,1658 C3819.91061,1543 3867.91061,1473 3853.91061,1459 C3845.91061,1451 3834.91061,1453 3813.91061,1468 C3762.91061,1504 3604.91061,1579 3508.91061,1612 C3428.91061,1640 3401.91061,1644 3315.91061,1645 C3227.91061,1645 3208.91061,1642 3158.91061,1618 C3053.91061,1569 2952.91061,1455 2872.91061,1294 C2827.91061,1204 2769.91061,1046 2750.91061,957 C2742.91061,925 2732.91061,896 2727.91061,893 C2721.91061,890 2708.91061,898 2697.91061,911 C2642.91061,978 2584.91061,1154 2510.91061,1480 C2391.91061,2005 2366.91061,2108 2334.91061,2212 C2291.91061,2345 2258.91061,2414 2227.91061,2434 C2215.91061,2442 2051.91061,2510 1862.91061,2585 C1593.91061,2692 1516.91061,2719 1505.91061,2710 C1482.91061,2691 1478.91061,2629 1495.91061,2547 C1540.91061,2331 1682.91061,2058 2111.91061,1368 C2223.91061,1188 2356.91061,966 2405.91061,874 C2455.91061,783 2508.91061,698 2523.91061,684 C2555.91061,657 2673.91061,617 2805.91061,589 C2953.91061,558 2945.91061,555 2964.91061,661 C3041.91061,1082 3309.91061,1146 3760.91061,850 C3901.91061,757 3963.91061,707 4095.91061,580 C4161.91061,517 4232.91061,451 4254.91061,434 L4292.91061,404 L4204.91061,363 C3354.91061,-26 2350.91061,24 1543.91061,495 C384.910608,1173 -161.089392,2558 226.910608,3837 C465.910608,4626 1041.91061,5287 1790.91061,5632 C1859.91061,5663 1919.91061,5690 1924.91061,5690 C1928.91061,5690 1905.91061,5672 1873.91061,5650 Z" id="Shape" fill="#000000" fill-rule="nonzero"></path>
    </g>
</svg>
