<?xml version="1.0" encoding="UTF-8"?>
<svg width="11765px" height="2593px" viewBox="0 0 11765 2593" version="1.1" xmlns="http://www.w3.org/2000/svg" xmlns:xlink="http://www.w3.org/1999/xlink">
    <!-- Generator: Sketch 43.2 (39069) - http://www.bohemiancoding.com/sketch -->
    <title>Group</title>
    <desc>Created with Sketch.</desc>
    <defs></defs>
    <g id="Page-1" stroke="none" stroke-width="1" fill="none" fill-rule="evenodd">
        <g id="Group" fill-rule="nonzero" fill="#303030">
            <g id="layer101">
                <path d="M1804,2590 C1802,2588 1800,2230 1800,1795 C1800,1026 1799,1003 1780,972 C1757,933 1704,909 1644,909 L1600,909 L1600,794 C1600,691 1602,679 1618,679 C1738,678 1920,640 2030,594 C2076,575 2107,569 2165,569 L2240,569 L2240,639 C2240,710 2247,722 2270,693 C2291,669 2368,627 2380,634 C2386,638 2389,635 2388,629 C2386,622 2410,608 2440,596 C2484,580 2519,576 2615,576 C2719,576 2745,579 2809,602 C2885,629 2967,678 3016,727 C3149,860 3217,1107 3190,1364 C3171,1550 3110,1694 3004,1804 C2943,1868 2832,1942 2808,1935 C2798,1933 2792,1935 2795,1939 C2798,1944 2770,1957 2732,1968 C2612,2004 2438,1992 2307,1940 C2291,1934 2277,1929 2274,1929 C2272,1929 2269,2078 2268,2260 L2265,2591 L2037,2592 C1911,2593 1806,2592 1804,2590 Z M2567,1680 C2677,1625 2730,1489 2730,1268 C2730,1127 2712,1036 2670,962 C2596,833 2433,818 2307,929 L2270,961 L2270,1288 L2270,1615 L2298,1641 C2372,1710 2478,1726 2567,1680 Z" id="Shape"></path>
                <path d="M5644,2590 C5642,2588 5640,2439 5640,2259 L5640,1933 L5558,1960 C5491,1983 5456,1988 5376,1988 C5197,1989 5067,1939 4955,1825 C4813,1681 4748,1479 4763,1224 C4775,1014 4836,860 4954,744 C5074,626 5192,579 5375,579 C5458,579 5489,584 5558,607 L5640,635 L5640,538 C5640,484 5635,429 5629,416 C5614,382 5577,366 5500,360 L5435,354 L5432,238 L5429,122 L5514,115 C5644,106 5807,66 5915,18 C5949,3 5977,-1 6032,1 L6105,4 L6108,318 C6110,610 6111,631 6128,626 C6262,582 6286,578 6400,582 C6515,586 6626,611 6615,629 C6612,635 6616,636 6624,633 C6659,619 6809,737 6865,822 C6882,849 6882,850 6864,872 L6845,894 L6867,875 L6890,856 L6916,915 C6966,1029 6983,1121 6984,1279 C6984,1454 6968,1532 6903,1667 C6869,1739 6844,1776 6794,1826 C6754,1865 6723,1889 6714,1885 C6707,1882 6701,1885 6703,1891 C6706,1907 6608,1954 6534,1973 C6414,2003 6285,1994 6128,1942 C6111,1937 6110,1958 6108,2263 L6105,2590 L5877,2592 C5751,2593 5646,2592 5644,2590 Z M5553,1718 C5587,1707 5621,1693 5628,1687 C5637,1679 5640,1586 5640,1283 L5640,889 L5610,870 C5594,860 5582,850 5584,848 C5586,846 5576,843 5562,842 C5547,842 5514,838 5489,834 C5382,817 5301,881 5256,1015 C5231,1093 5218,1273 5230,1397 C5243,1541 5272,1621 5331,1681 C5394,1744 5448,1753 5553,1718 Z M6367,1720 C6420,1696 6464,1636 6492,1550 C6509,1496 6514,1453 6518,1317 C6522,1146 6511,1059 6474,971 C6422,846 6319,802 6190,850 C6160,861 6128,871 6120,872 C6107,873 6105,924 6108,1276 L6110,1679 L6136,1696 C6168,1717 6244,1738 6290,1738 C6309,1738 6344,1730 6367,1720 Z" id="Shape"></path>
                <path d="M3780,1973 C3605,1935 3456,1847 3365,1728 C3344,1700 3331,1675 3336,1668 C3340,1660 3339,1659 3332,1663 C3319,1671 3281,1601 3250,1509 C3219,1417 3211,1221 3234,1113 C3278,912 3403,743 3570,661 C3703,595 3788,577 3965,576 C4105,575 4151,580 4263,610 C4284,615 4298,624 4295,629 C4292,635 4296,636 4304,633 C4325,625 4453,695 4510,746 C4597,824 4663,930 4702,1053 C4730,1141 4737,1350 4716,1449 C4668,1676 4511,1856 4288,1939 C4153,1989 3924,2004 3780,1973 Z M4040,1729 C4090,1715 4147,1665 4175,1610 C4218,1525 4230,1453 4230,1287 C4230,1049 4189,920 4094,859 C3998,799 3883,814 3811,896 C3749,966 3729,1041 3723,1225 C3715,1445 3739,1579 3800,1656 C3811,1670 3817,1686 3813,1693 C3810,1699 3811,1701 3815,1696 C3820,1692 3833,1695 3845,1703 C3895,1736 3977,1747 4040,1729 Z" id="Shape"></path>
                <path d="M8820,1972 C8695,1927 8630,1845 8630,1734 C8630,1650 8683,1552 8721,1564 C8731,1567 8741,1565 8745,1560 C8749,1553 8744,1552 8733,1556 C8718,1561 8717,1559 8728,1548 C8741,1534 8856,1523 8892,1533 C8905,1536 8924,1546 8934,1554 C8951,1567 8951,1571 8939,1586 C8926,1602 8927,1603 8942,1590 C8960,1576 8960,1576 8985,1648 C8988,1655 8985,1669 8978,1678 C8968,1691 8968,1692 8980,1682 C8988,1675 9006,1669 9020,1669 C9067,1669 9099,1615 9123,1498 C9150,1369 9170,1190 9172,1059 C9174,949 9172,930 9154,899 C9129,855 9098,839 9038,839 L8990,839 L8990,724 L8990,609 L9680,609 L10370,609 L10370,724 L10370,839 L10330,839 C10274,839 10236,861 10214,906 C10197,940 10195,975 10192,1270 C10190,1478 10192,1611 10199,1636 C10215,1694 10256,1728 10318,1736 L10370,1742 L10370,1855 L10370,1969 L9960,1969 L9550,1969 L9550,1855 L9550,1742 L9595,1737 C9650,1730 9684,1709 9707,1666 C9723,1637 9725,1600 9725,1284 C9725,1092 9722,922 9718,907 C9713,890 9699,877 9679,870 C9639,856 9515,856 9490,869 C9467,881 9453,925 9446,1004 C9420,1289 9407,1407 9394,1484 C9347,1760 9279,1881 9130,1953 C9072,1981 9054,1984 8965,1986 C8893,1988 8852,1984 8820,1972 Z" id="Shape"></path>
                <path d="M0,1854 L0,1739 L38,1739 C87,1739 132,1710 156,1663 C174,1627 175,1599 175,1294 C175,941 172,913 125,869 C109,854 84,845 50,841 L0,836 L0,723 L0,609 L768,609 L1535,609 L1532,1289 L1530,1969 L1220,1969 L910,1969 L910,1855 L910,1742 L956,1735 C1012,1728 1052,1705 1074,1669 C1088,1644 1090,1596 1090,1281 L1090,920 L1066,892 L1042,864 L878,861 C759,859 708,862 690,871 C644,896 641,927 641,1317 C642,1517 645,1678 648,1675 C650,1672 668,1683 686,1699 C710,1719 735,1730 770,1735 L820,1742 L820,1855 L820,1969 L410,1969 L0,1969 L0,1854 Z" id="Shape"></path>
                <path d="M7050,1289 L7050,609 L7365,609 L7681,609 L7678,721 L7675,834 L7629,840 C7603,844 7571,854 7558,863 C7510,894 7506,919 7502,1154 L7500,1374 L7551,1319 C7605,1262 7775,1079 7890,954 C7925,916 7958,883 7962,881 C7967,879 7970,869 7970,858 C7970,841 7962,839 7880,839 L7790,839 L7790,724 L7790,609 L8200,609 L8610,609 L8610,724 L8610,839 L8569,839 C8511,839 8473,865 8453,919 C8437,959 8435,1004 8435,1306 C8435,1636 8436,1649 8456,1676 C8482,1711 8535,1739 8578,1739 L8610,1739 L8610,1854 L8610,1969 L8200,1969 L7790,1969 L7790,1855 L7790,1742 L7836,1736 C7899,1729 7932,1703 7953,1640 C7968,1595 7970,1557 7968,1377 L7965,1167 L7732,1433 C7584,1602 7500,1706 7502,1717 C7505,1731 7519,1734 7593,1737 L7680,1740 L7680,1854 L7680,1969 L7365,1969 L7050,1969 L7050,1289 Z" id="Shape"></path>
                <path d="M10460,1289 L10460,609 L10780,609 L11101,609 L11098,721 L11095,834 L11047,841 C10946,855 10917,895 10912,1031 L10908,1129 L11098,1129 C11388,1129 11545,1169 11654,1269 C11807,1410 11800,1694 11640,1843 C11610,1871 11583,1888 11575,1885 C11567,1882 11561,1885 11563,1891 C11566,1906 11447,1947 11363,1959 C11326,1964 11107,1969 10878,1969 L10460,1969 L10460,1289 Z M11143,1703 C11260,1663 11305,1534 11233,1449 C11189,1397 11157,1386 11028,1381 L10910,1377 L10910,1528 C10910,1716 10912,1719 11023,1719 C11064,1719 11117,1712 11143,1703 Z" id="Shape"></path>
                <path d="M1307,392 C1294,380 1300,318 1314,313 C1322,310 1343,265 1361,212 C1409,74 1431,75 1477,217 C1492,265 1510,308 1517,312 C1524,316 1530,338 1530,360 C1530,396 1528,400 1508,397 C1493,395 1484,386 1482,372 C1479,351 1473,349 1414,349 C1352,349 1350,350 1350,374 C1350,392 1345,399 1332,399 C1322,399 1310,396 1307,392 Z M1452,308 C1454,306 1446,275 1435,240 L1416,176 L1394,235 C1381,268 1371,299 1371,304 C1370,313 1447,317 1452,308 Z" id="Shape"></path>
                <path d="M71,347 C-10,303 -17,171 59,126 C125,87 205,126 217,202 L223,239 L136,239 C50,239 49,239 55,262 C66,297 100,321 129,314 C143,310 159,301 163,293 C173,275 210,275 210,292 C210,335 117,371 71,347 Z M170,191 C170,177 145,150 130,149 C103,145 92,149 76,165 C49,191 58,199 115,199 C145,199 170,195 170,191 Z" id="Shape"></path>
                <path d="M651,346 C593,316 570,241 599,171 C621,117 687,94 744,120 C771,133 800,184 800,218 C800,238 795,239 714,239 C630,239 629,239 635,262 C646,297 680,321 709,314 C723,310 739,301 743,293 C753,275 790,275 790,293 C790,322 734,359 692,359 C683,359 664,353 651,346 Z M750,192 C750,171 725,149 700,149 C661,149 620,191 650,201 C664,205 750,198 750,192 Z" id="Shape"></path>
                <path d="M1123,339 C1065,304 1054,200 1103,143 C1129,114 1195,100 1229,118 C1256,133 1276,165 1285,207 L1292,239 L1206,239 C1131,239 1120,241 1120,257 C1121,306 1181,332 1222,300 C1254,274 1283,272 1278,296 C1274,320 1213,359 1181,359 C1167,359 1141,350 1123,339 Z M1228,177 C1217,161 1203,154 1180,154 C1157,154 1143,161 1133,177 L1118,199 L1180,199 L1242,199 L1228,177 Z" id="Shape"></path>
                <path d="M1606,344 C1552,315 1533,261 1552,193 C1580,90 1705,78 1746,175 C1772,237 1769,239 1674,239 C1590,239 1589,239 1595,262 C1603,287 1636,319 1655,319 C1662,319 1679,310 1693,299 C1743,260 1772,285 1726,328 C1695,357 1643,364 1606,344 Z M1710,193 C1710,153 1647,134 1616,165 C1589,191 1598,199 1655,199 C1685,199 1710,196 1710,193 Z" id="Shape"></path>
                <path d="M230,345 C230,343 246,312 265,276 C284,240 300,206 300,200 C300,195 286,174 269,154 C242,123 240,118 255,112 C268,108 287,121 326,161 L379,216 L382,165 C385,122 388,114 405,114 C422,114 425,122 428,166 L431,218 L484,162 C523,120 541,107 554,112 C570,118 568,123 541,154 C524,174 510,194 510,200 C510,205 522,233 537,262 C582,347 583,349 555,349 C535,349 524,337 499,294 C469,240 467,239 449,255 C437,266 430,286 430,311 C430,345 427,349 405,349 C383,349 380,345 380,311 C380,285 373,266 361,255 C342,238 341,238 325,268 C316,286 305,297 300,294 C294,291 293,295 296,304 C305,325 282,349 254,349 C241,349 230,347 230,345 Z" id="Shape"></path>
                <path d="M842,232 C845,122 846,114 865,114 C882,114 885,122 888,162 L891,209 L941,209 L990,209 L990,159 C990,116 993,109 1010,109 C1029,109 1030,116 1030,229 C1030,342 1029,349 1010,349 C993,349 990,342 990,299 L990,249 L940,249 L890,249 L890,299 C890,346 888,349 865,349 L839,349 L842,232 Z" id="Shape"></path>
                <path d="M1770,346 C1770,338 1840,147 1850,129 C1873,87 1894,110 1932,219 C1976,344 1976,349 1947,349 C1927,349 1921,338 1899,267 L1873,184 L1858,219 C1850,238 1835,275 1826,302 C1813,336 1803,349 1789,349 C1779,349 1770,348 1770,346 Z" id="Shape"></path>
                <path d="M2002,232 C2005,129 2007,114 2023,111 C2037,108 2040,115 2040,153 L2040,199 L2078,199 C2098,199 2130,208 2148,219 C2174,235 2180,245 2180,273 C2180,329 2150,349 2068,349 L1999,349 L2002,232 Z M2128,280 C2132,251 2116,239 2073,239 C2042,239 2040,241 2040,275 L2040,310 L2083,307 C2119,304 2126,300 2128,280 Z" id="Shape"></path>
                <path d="M2222,232 C2225,129 2227,114 2243,111 C2257,108 2260,115 2260,157 L2260,207 L2318,211 L2375,214 L2372,161 C2368,113 2370,108 2387,111 C2403,114 2405,127 2408,232 C2411,344 2410,349 2390,349 C2373,349 2370,343 2370,299 L2370,249 L2315,249 L2260,249 L2260,299 C2260,343 2257,349 2240,349 C2220,349 2219,344 2222,232 Z" id="Shape"></path>
                <path d="M2462,232 C2465,122 2466,114 2485,114 C2503,114 2506,122 2510,191 L2515,267 L2560,193 C2634,72 2650,79 2650,235 C2650,342 2649,349 2630,349 C2613,349 2611,341 2608,272 L2605,194 L2556,272 C2517,332 2501,349 2483,349 L2459,349 L2462,232 Z" id="Shape"></path>
                <path d="M2702,232 C2705,122 2706,114 2725,114 C2742,114 2746,122 2750,167 L2755,219 L2804,164 C2830,134 2861,109 2871,109 C2897,109 2895,115 2858,161 L2827,201 L2863,269 C2884,306 2900,339 2900,343 C2900,346 2889,349 2875,349 C2855,349 2845,339 2824,297 C2791,230 2794,233 2770,254 C2757,266 2750,285 2750,311 C2750,345 2747,349 2725,349 L2699,349 L2702,232 Z" id="Shape"></path>
            </g>
        </g>
    </g>
</svg>
