<?xml version="1.0" encoding="UTF-8"?>
<svg width="12740px" height="3410px" viewBox="0 0 12740 3410" version="1.1" xmlns="http://www.w3.org/2000/svg" xmlns:xlink="http://www.w3.org/1999/xlink">
    <!-- Generator: Sketch 43.2 (39069) - http://www.bohemiancoding.com/sketch -->
    <title>Group</title>
    <desc>Created with Sketch.</desc>
    <defs></defs>
    <g id="Page-1" stroke="none" stroke-width="1" fill="none" fill-rule="evenodd">
        <g id="Group" fill-rule="nonzero">
            <g id="layer101" transform="translate(4060.000000, 0.000000)" fill="#000000">
                <path d="M0,1705 L0,0 L683,0 C1408,0 1469,4 1659,51 C2000,136 2240,325 2356,600 C2478,890 2476,1318 2351,1593 C2242,1835 2015,2020 1725,2105 C1546,2157 1492,2162 1118,2167 L760,2172 L760,2791 L760,3410 L380,3410 L0,3410 L0,1705 Z M1335,1606 C1528,1553 1639,1447 1685,1273 C1706,1196 1706,1004 1685,927 C1651,799 1585,713 1478,659 C1373,606 1319,598 1028,593 L760,588 L760,1110 L760,1633 L1018,1627 C1211,1623 1290,1618 1335,1606 Z" id="Shape"></path>
                <path d="M2760,1705 L2760,0 L3840,0 L4920,0 L4920,305 L4920,610 L4215,610 L3510,610 L3510,959 L3510,1308 L3873,1313 C4265,1319 4361,1329 4537,1385 C4890,1496 5103,1720 5182,2063 C5213,2196 5214,2492 5183,2631 C5100,3010 4852,3257 4452,3359 C4267,3407 4209,3410 3463,3410 L2760,3410 L2760,1705 Z M4148,2796 C4293,2759 4407,2667 4450,2553 C4482,2467 4494,2355 4481,2258 C4460,2103 4386,1994 4259,1931 C4154,1880 4085,1870 3783,1863 L3510,1857 L3510,2340 L3510,2822 L3798,2817 C4017,2814 4100,2809 4148,2796 Z" id="Shape"></path>
                <path d="M5750,1705 L5750,0 L6150,0 L6550,0 L6552,725 L6555,1451 L7156,728 L7756,5 L8183,2 C8418,1 8610,3 8609,7 C8609,12 8299,375 7921,815 L7234,1615 L7957,2507 C8355,2999 8680,3403 8680,3405 C8680,3408 8470,3410 8213,3410 L7745,3410 L7150,2656 L6555,1903 L6552,2657 L6550,3410 L6150,3410 L5750,3410 L5750,1705 Z" id="Shape"></path>
            </g>
            <g id="layer102" transform="translate(220.000000, 218.000000)" fill="#2A8288">
                <path d="M0,3189 C0,3188 720,2470 1600,1593 L3200,0 L3200,1596 L3200,3192 L1600,3192 C720,3192 0,3191 0,3189 Z" id="Shape"></path>
            </g>
            <g id="layer103" fill="#92CFAE">
                <path d="M0,1595 L0,0 L1597,0 L3195,0 L1600,1595 C723,2472 4,3190 3,3190 C1,3190 0,2472 0,1595 Z" id="Shape"></path>
                <path d="M1725,1900 C1912,1713 2067,1560 2070,1560 C2073,1560 1922,1713 1735,1900 C1548,2087 1393,2240 1390,2240 C1387,2240 1538,2087 1725,1900 Z" id="Shape"></path>
            </g>
        </g>
    </g>
</svg>