<!DOCTYPE svg PUBLIC "-//W3C//DTD SVG 20010904//EN" "http://www.w3.org/TR/2001/REC-SVG-20010904/DTD/svg10.dtd">
<svg version="1.0" xmlns="http://www.w3.org/2000/svg" width="350px" height="116px" viewBox="0 0 3500 1160" preserveAspectRatio="xMidYMid meet">
<g id="layer101" fill="#231f20" stroke="none">
 <path d="M40 909 l0 -190 31 3 c30 3 32 6 58 93 15 50 34 104 43 120 53 101 146 127 182 51 43 -90 10 -170 -149 -366 -132 -161 -165 -233 -165 -358 0 -97 24 -167 76 -218 41 -41 47 -44 99 -44 36 0 70 7 95 20 l40 20 17 -20 c10 -11 30 -20 45 -20 l28 0 0 180 0 180 -33 0 -34 0 -18 -83 c-31 -139 -77 -210 -135 -210 -48 0 -70 27 -70 90 0 74 23 117 135 248 141 165 185 256 192 395 4 82 2 103 -17 154 -13 33 -40 78 -60 100 -34 36 -43 40 -97 44 -50 3 -68 0 -111 -22 l-52 -27 -24 26 c-14 14 -34 25 -50 25 l-26 0 0 -191z"/>
 <path d="M2710 1051 c-71 -71 -95 -153 -95 -321 0 -147 24 -242 77 -308 46 -55 77 -72 137 -72 47 0 55 3 95 43 61 61 87 135 93 265 l6 103 -127 -3 -126 -3 0 40 c1 57 23 158 42 187 37 57 102 32 130 -48 9 -27 19 -61 22 -76 5 -22 12 -28 33 -28 26 0 26 1 20 59 -6 68 -45 149 -90 187 -24 20 -39 24 -98 24 l-70 0 -49 -49z m157 -488 c-5 -116 -17 -156 -44 -151 -24 5 -43 72 -50 173 l-6 90 53 0 53 0 -6 -112z"/>
 <path d="M3060 945 l0 -155 30 0 c25 0 30 4 30 23 0 29 38 145 59 176 8 13 30 30 49 38 30 12 37 12 57 -1 31 -20 40 -65 22 -108 -8 -19 -45 -61 -83 -93 -132 -116 -155 -150 -162 -245 -6 -88 11 -146 58 -192 31 -32 45 -38 78 -38 23 0 58 8 78 17 34 17 36 17 45 0 6 -9 21 -17 34 -17 l25 0 0 136 0 135 -26 -3 c-23 -3 -30 -13 -55 -82 -32 -88 -49 -112 -85 -119 -39 -7 -59 15 -59 68 0 51 -12 36 139 168 90 79 121 138 120 232 0 82 -34 159 -83 194 -37 27 -117 28 -159 4 -29 -17 -31 -17 -50 0 -10 9 -28 17 -40 17 -22 0 -22 -3 -22 -155z"/>
 <path d="M487 1084 c-16 -16 -7 -56 14 -61 11 -3 25 -17 30 -30 5 -13 9 -216 9 -455 l0 -430 -31 -29 c-20 -19 -29 -36 -27 -51 3 -22 7 -23 117 -26 142 -3 208 10 264 52 124 95 185 282 174 540 -10 248 -81 402 -216 468 -40 20 -65 23 -186 26 -77 2 -144 0 -148 -4z m286 -75 c61 -28 77 -119 77 -461 1 -367 -16 -451 -96 -470 -49 -12 -49 -18 -52 450 -2 280 1 448 7 465 11 29 27 33 64 16z"/>
 <path d="M1257 1083 c-17 -16 -6 -54 18 -63 14 -5 30 -21 35 -35 6 -16 10 -205 10 -472 0 -442 0 -446 -20 -428 -23 21 -66 144 -83 241 -12 65 -15 69 -42 72 l-28 4 6 -138 c4 -75 7 -166 7 -201 l0 -63 240 0 240 0 0 200 0 200 -24 0 c-22 0 -25 -6 -35 -66 -17 -98 -58 -218 -81 -239 -20 -18 -20 -18 -20 434 0 293 4 459 10 472 6 10 20 19 30 19 16 0 20 7 20 35 l0 35 -138 0 c-76 0 -142 -3 -145 -7z"/>
 <path d="M1650 1061 c0 -17 8 -34 19 -42 11 -8 21 -21 22 -29 1 -8 1 -135 0 -282 -1 -257 -2 -267 -21 -273 -14 -4 -20 -15 -20 -36 0 -35 1 -36 108 -43 l82 -6 0 315 c0 317 4 355 35 355 10 0 15 11 15 35 l0 35 -120 0 -120 0 0 -29z"/>
 <path d="M1920 1056 c0 -25 5 -35 20 -39 19 -5 20 -14 20 -286 0 -270 -1 -281 -20 -293 -13 -9 -20 -24 -20 -45 l0 -33 65 -2 c133 -4 120 -7 120 33 l0 37 42 -39 c56 -51 92 -52 139 -5 19 19 34 42 34 52 0 12 9 5 30 -22 45 -62 110 -82 157 -49 47 33 56 90 61 383 4 259 5 272 23 272 15 0 19 7 19 35 l0 35 -89 0 -90 0 -3 -295 c-3 -265 -5 -296 -21 -312 -16 -17 -18 -16 -37 2 -29 30 -40 109 -40 295 0 192 5 231 32 237 13 4 18 15 18 39 l0 34 -89 0 -90 0 -3 -295 c-3 -258 -5 -296 -20 -311 -20 -20 -36 -11 -54 32 -11 25 -14 89 -14 265 0 223 1 231 20 236 21 6 37 44 25 62 -4 7 -51 11 -121 11 l-114 0 0 -34z"/>
 </g>
<g id="layer102" fill="#e2383f" stroke="none">
 <path d="M1719 235 c-34 -18 -53 -65 -45 -108 8 -41 31 -65 74 -73 26 -5 36 -1 63 25 29 29 31 36 26 79 -4 34 -12 53 -32 69 -30 26 -49 28 -86 8z"/>
 <path d="M1900 215 c-16 -19 -3 -38 23 -31 18 4 17 2 -6 -20 -30 -27 -32 -36 -17 -65 12 -21 49 -26 67 -8 8 8 13 8 17 0 12 -19 46 -12 56 12 l9 22 0 -23 c1 -23 3 -23 99 -21 59 1 100 6 104 13 6 8 8 7 8 -1 0 -7 9 -13 21 -13 14 0 19 5 16 14 -3 8 -9 42 -13 75 l-6 60 -38 -1 -38 0 -8 -57 -8 -56 -6 55 c-4 42 -9 56 -22 58 -15 3 -18 -5 -18 -52 0 -55 -1 -56 -27 -55 -16 0 -22 3 -15 6 14 6 16 43 2 43 -5 0 -10 14 -10 30 0 23 -4 30 -20 30 -14 0 -20 -7 -21 -22 l0 -23 -9 23 c-10 24 -39 29 -58 10 -9 -9 -15 -9 -24 0 -16 16 -43 15 -58 -3z m120 -60 c0 -14 -4 -25 -10 -25 -5 0 -10 11 -10 25 0 14 5 25 10 25 6 0 10 -11 10 -25z"/>
 <path d="M2294 183 c13 -90 17 -103 35 -103 13 0 20 13 28 48 l10 47 2 -47 c1 -46 2 -48 29 -48 15 0 33 5 40 12 9 9 12 9 12 0 0 -7 14 -12 35 -12 28 0 35 4 35 20 0 14 -7 20 -22 21 -17 1 -19 2 -5 6 21 5 23 43 2 43 -8 0 -15 5 -15 10 0 6 9 10 20 10 13 0 20 7 20 20 0 19 -7 20 -90 20 -74 0 -91 -3 -99 -17 -10 -17 -10 -17 -11 0 0 9 -7 17 -16 17 -14 0 -15 -8 -10 -47z"/>
 <path d="M2550 155 l0 -75 28 0 c40 0 52 17 52 71 0 54 -18 79 -56 79 -23 0 -24 -2 -24 -75z"/>
 <path d="M2640 155 l0 -75 49 0 c39 0 51 4 54 18 4 16 5 16 6 0 1 -15 10 -18 51 -18 43 0 50 3 50 20 0 12 -7 20 -17 21 -11 0 -13 3 -5 6 14 6 16 43 2 43 -5 0 -10 5 -10 10 0 6 7 10 15 10 8 0 15 9 15 20 0 16 -7 20 -30 20 l-30 0 -1 -72 -1 -73 -15 70 c-17 79 -17 80 -36 72 -9 -3 -17 -27 -21 -60 -7 -50 -9 -54 -29 -49 -12 3 -16 7 -9 10 14 4 16 42 2 42 -5 0 -10 5 -10 10 0 6 9 10 20 10 13 0 20 7 20 20 0 16 -7 20 -35 20 l-35 0 0 -75z"/>
 <path d="M2860 155 c0 -60 3 -75 15 -75 12 0 15 13 15 55 0 42 3 55 15 55 11 0 15 -11 15 -36 0 -63 35 -95 68 -62 9 9 12 9 12 0 0 -15 56 -16 66 -1 5 8 9 7 14 -1 12 -19 40 -4 41 22 1 22 1 22 8 -2 6 -22 13 -25 59 -28 47 -3 52 -1 52 17 0 13 -7 21 -17 22 -11 0 -13 3 -5 6 14 6 16 43 2 43 -5 0 -10 5 -10 10 0 6 7 10 15 10 8 0 15 9 15 20 0 18 -7 20 -80 20 l-80 0 0 -35 c0 -33 -1 -34 -20 -23 -11 7 -20 23 -20 35 0 16 -6 23 -20 23 -11 0 -20 -5 -20 -12 0 -9 -3 -9 -12 0 -17 17 -45 15 -57 -5 -10 -17 -10 -17 -11 0 0 12 -8 17 -30 17 l-30 0 0 -75z m110 0 c0 -14 -4 -25 -10 -25 -5 0 -10 11 -10 25 0 14 5 25 10 25 6 0 10 -11 10 -25z"/>
 <path d="M3245 191 c-3 -21 -3 -54 0 -74 l7 -35 74 -1 c68 -1 74 0 74 19 0 11 -4 20 -10 20 -5 0 -10 25 -10 55 0 42 -3 55 -15 55 -11 0 -15 -13 -15 -54 0 -39 -4 -55 -15 -60 -12 -4 -15 5 -15 54 0 45 -4 60 -14 60 -8 0 -17 -8 -19 -17 -4 -17 -5 -17 -6 0 -2 34 -29 18 -36 -22z"/>
 </g>

</svg>
