<?xml version="1.0" encoding="UTF-8"?>
<svg width="3652px" height="3344px" viewBox="0 0 3652 3344" version="1.1" xmlns="http://www.w3.org/2000/svg" xmlns:xlink="http://www.w3.org/1999/xlink">
    <!-- Generator: Sketch 43.2 (39069) - http://www.bohemiancoding.com/sketch -->
    <title>Group</title>
    <desc>Created with Sketch.</desc>
    <defs></defs>
    <g id="Page-1" stroke="none" stroke-width="1" fill="none" fill-rule="evenodd">
        <g id="Group">
            <rect id="Rectangle" fill="#FEC9D3" x="0" y="0" width="3652" height="3344"></rect>
            <g id="layer101" transform="translate(200.000000, 149.000000)" fill-rule="nonzero" fill="#010101">
                <path d="M2279,2980 C2120,2928 2022,2819 1976,2644 C1964,2596 1961,2518 1961,2232 L1961,1879 L1861,1879 L1761,1879 L1761,1764 L1761,1649 L1975,1649 L2190,1649 L2193,2102 C2197,2600 2199,2611 2262,2698 C2353,2825 2566,2817 2696,2683 C2748,2630 2787,2554 2801,2480 C2806,2451 2811,2303 2811,2153 L2811,1879 L2696,1879 L2581,1879 L2581,1764 L2581,1649 L2811,1649 L3041,1649 L3041,1997 C3041,2188 3044,2435 3048,2547 L3054,2749 L3143,2749 L3232,2749 L3229,2857 L3226,2964 L3049,2967 C2887,2969 2872,2968 2868,2952 C2865,2942 2857,2897 2851,2852 C2844,2806 2836,2769 2832,2769 C2829,2769 2811,2792 2792,2820 C2749,2883 2692,2931 2615,2966 C2564,2990 2542,2994 2446,2996 C2360,2998 2324,2995 2279,2980 Z" id="Shape"></path>
                <polygon id="Shape" points="3 2857 6 2744 121 2744 236 2744 239 2857 242 2969 121 2969 0 2969"></polygon>
                <path d="M468,2962 C464,2959 461,2909 461,2852 L461,2749 L571,2749 L681,2749 L681,2304 L681,1860 L574,1857 L466,1854 L463,1751 L460,1649 L668,1651 L876,1654 L878,1704 C880,1732 884,1788 887,1829 C893,1903 894,1904 910,1879 C946,1822 1036,1739 1093,1709 C1183,1661 1240,1649 1384,1649 L1511,1649 L1511,1849 L1511,2049 L1398,2049 L1284,2049 L1289,1949 C1292,1881 1290,1849 1283,1849 C1254,1849 1162,1873 1131,1889 C1072,1919 1006,1985 973,2047 C917,2152 911,2195 911,2486 L911,2749 L1196,2749 L1481,2749 L1481,2859 L1481,2969 L978,2969 C701,2969 471,2966 468,2962 Z" id="Shape"></path>
                <path d="M2401,1355 C2124,1272 1933,1048 1902,768 C1863,418 2095,89 2437,13 C2529,-7 2711,-2 2806,24 C2884,45 3016,109 3064,149 L3101,180 L3101,345 L3101,509 L2986,509 L2871,509 L2871,394 L2871,279 L2831,259 C2738,212 2593,197 2488,224 C2409,244 2357,273 2300,326 C2141,474 2100,704 2196,907 C2327,1184 2684,1243 2914,1027 C2942,1000 2967,979 2969,979 C2971,979 3010,1009 3057,1045 L3141,1111 L3105,1155 C3062,1207 2967,1280 2898,1316 C2767,1382 2547,1399 2401,1355 Z" id="Shape"></path>
                <path d="M992,1347 C987,1334 899,1088 796,799 C693,510 601,268 592,261 C582,253 549,248 501,249 C460,250 414,250 399,250 L371,249 L371,139 L371,29 L577,31 L784,34 L949,516 C1040,781 1117,996 1121,994 C1124,992 1201,774 1291,510 L1456,29 L1651,31 L1846,34 L1849,141 L1852,248 L1740,251 L1629,254 L1422,809 L1215,1364 L1108,1367 C1004,1370 1000,1369 992,1347 Z" id="Shape"></path>
            </g>
        </g>
    </g>
</svg>
