<?xml version="1.0" encoding="UTF-8"?>
<svg width="3185px" height="825px" viewBox="0 0 3185 825" version="1.1" xmlns="http://www.w3.org/2000/svg" xmlns:xlink="http://www.w3.org/1999/xlink">
    <!-- Generator: Sketch 43.2 (39069) - http://www.bohemiancoding.com/sketch -->
    <title>Group</title>
    <desc>Created with Sketch.</desc>
    <defs></defs>
    <g id="Page-1" stroke="none" stroke-width="1" fill="none" fill-rule="evenodd">
        <g id="Group" fill-rule="nonzero">
            <g id="layer101" transform="translate(1215.000000, 341.000000)" fill="#404040">
                <path d="M818,202 C814,192 792,158 768,126 C725,71 720,49 751,49 C759,49 770,37 775,23 C781,9 790,-1 795,1 C811,6 964,203 958,211 C956,216 925,219 889,219 C837,219 823,216 818,202 Z" id="Shape"></path>
                <path d="M36,128 C55,104 86,65 104,41 C127,12 141,1 148,8 C154,14 147,31 126,57 C109,79 95,104 95,114 C95,123 91,127 85,124 C80,121 78,124 81,132 C87,150 81,154 35,164 L0,172 L36,128 Z" id="Shape"></path>
                <path d="M745,28 C745,23 750,21 755,24 C761,27 765,32 765,35 C765,37 761,39 755,39 C750,39 745,34 745,28 Z" id="Shape"></path>
            </g>
            <g id="layer102" fill="#4B4B4B">
                <path d="M215,528 C89,230 0,15 0,8 C0,3 30,0 68,2 L135,5 L210,192 C252,295 288,381 291,384 C294,387 331,302 374,195 L452,0 L522,0 C560,0 589,3 587,8 C585,12 530,138 464,288 L346,560 L287,560 C231,560 229,559 215,528 Z" id="Shape"></path>
                <path d="M790,551 C687,517 632,451 611,336 C591,227 620,119 686,62 C743,11 797,-4 909,2 C1029,8 1081,37 1125,125 C1152,178 1155,195 1155,275 C1155,378 1141,427 1097,476 C1049,532 998,552 900,556 C853,558 804,556 790,551 Z M984,420 C1059,354 1053,177 975,126 C934,99 852,95 810,117 C753,147 730,191 730,272 C730,400 774,450 887,450 C942,450 953,447 984,420 Z" id="Shape"></path>
                <path d="M1180,553 C1180,548 1195,529 1213,509 C1230,490 1238,483 1230,493 C1216,512 1217,512 1250,505 C1296,495 1302,491 1296,473 C1293,465 1295,462 1300,465 C1306,468 1310,464 1310,455 C1310,445 1324,420 1341,399 C1374,357 1372,326 1338,357 C1326,367 1384,291 1465,187 L1612,0 L1685,0 L1758,0 L1822,86 C1856,133 1884,174 1883,178 C1877,192 1825,260 1818,260 C1815,260 1785,226 1752,184 C1718,143 1688,109 1684,108 C1678,108 1639,156 1400,463 L1325,559 L1253,560 C1213,560 1180,557 1180,553 Z" id="Shape"></path>
                <path d="M2173,553 C2177,550 2172,537 2163,526 C2145,505 2145,505 2168,524 C2192,545 2197,560 2178,560 C2172,560 2170,557 2173,553 Z" id="Shape"></path>
                <polygon id="Shape" points="2230 280 2230 0 2420 0 2610 0 2610 50 2610 100 2480 100 2350 100 2350 160 2350 220 2475 220 2600 220 2600 275 2600 330 2470 330 2340 330 2340 390 2340 450 2480 450 2620 450 2620 505 2620 560 2425 560 2230 560"></polygon>
                <path d="M2698,554 C2693,550 2690,424 2690,273 L2690,0 L2825,0 C2983,0 3045,11 3098,50 C3161,96 3185,156 3185,270 C3184,417 3148,485 3045,531 C3003,550 2973,554 2850,558 C2770,560 2702,559 2698,554 Z M2990,432 C3088,384 3099,186 3008,130 C2982,114 2958,110 2893,110 L2810,110 L2810,280 L2810,450 L2883,450 C2931,450 2966,444 2990,432 Z" id="Shape"></path>
                <path d="M2009,513 C1996,497 1997,496 2013,509 C2029,522 2034,530 2026,530 C2024,530 2016,522 2009,513 Z" id="Shape"></path>
                <path d="M2129,483 C2116,467 2117,466 2133,479 C2149,492 2154,500 2146,500 C2144,500 2136,492 2129,483 Z" id="Shape"></path>
                <path d="M1979,473 C1966,457 1967,456 1983,469 C1999,482 2004,490 1996,490 C1994,490 1986,482 1979,473 Z" id="Shape"></path>
                <path d="M1265,440 C1275,429 1285,420 1288,420 C1291,420 1285,429 1275,440 C1265,451 1255,460 1252,460 C1249,460 1255,451 1265,440 Z" id="Shape"></path>
                <path d="M1949,433 C1936,417 1937,416 1953,429 C1962,436 1970,444 1970,446 C1970,454 1962,449 1949,433 Z" id="Shape"></path>
                <path d="M2070,410 C2053,388 2041,370 2043,370 C2046,370 2063,388 2080,410 C2097,432 2109,450 2107,450 C2104,450 2087,432 2070,410 Z" id="Shape"></path>
                <path d="M1290,406 C1290,404 1298,396 1308,389 C1323,376 1324,377 1311,393 C1298,409 1290,414 1290,406 Z" id="Shape"></path>
                <path d="M1919,394 C1910,383 1915,371 1945,334 C1966,309 1985,292 1989,297 C1992,301 2006,318 2020,335 C2034,351 2037,359 2028,351 C2009,337 1990,344 1990,365 C1990,372 1977,385 1960,393 C1935,406 1929,406 1919,394 Z M1980,376 C1980,373 1976,368 1970,365 C1965,362 1960,364 1960,369 C1960,375 1965,380 1970,380 C1976,380 1980,378 1980,376 Z" id="Shape"></path>
            </g>
            <g id="layer103" transform="translate(1185.000000, 0.000000)" fill="#007BC6">
                <path d="M177,230 C148,192 149,176 178,184 C190,187 208,190 218,190 C230,190 234,194 228,203 C224,209 220,221 218,229 C214,259 198,259 177,230 Z" id="Shape"></path>
                <path d="M675,240 C681,229 690,220 695,220 C701,220 705,229 705,240 C705,253 698,260 685,260 C667,260 666,257 675,240 Z" id="Shape"></path>
                <path d="M770,240 C780,229 797,220 808,220 C827,220 828,221 810,240 C800,251 783,260 772,260 C753,260 752,259 770,240 Z" id="Shape"></path>
                <path d="M70,93 C43,61 15,27 7,18 C-7,1 -3,0 67,0 L141,0 L189,66 C215,102 235,133 233,135 C231,136 205,141 174,144 L118,151 L70,93 Z" id="Shape"></path>
                <path d="M887,98 C890,67 888,65 858,62 C820,58 819,53 844,23 C861,3 873,0 934,0 L1006,0 L953,65 C925,101 897,130 892,130 C888,130 885,115 887,98 Z" id="Shape"></path>
            </g>
            <g id="layer104" transform="translate(70.000000, 10.000000)" fill="#26B8E6">
                <path d="M5,799 C-6,783 4,780 18,796 C25,804 26,810 21,810 C16,810 8,805 5,799 Z" id="Shape"></path>
                <path d="M290,739 C290,679 288,669 274,674 C266,677 262,676 265,670 C268,664 278,660 286,660 C297,660 300,676 300,735 C300,776 298,810 295,810 C292,810 290,778 290,739 Z" id="Shape"></path>
                <path d="M460,800 C460,793 463,790 467,793 C470,797 470,803 467,807 C463,810 460,807 460,800 Z" id="Shape"></path>
                <path d="M490,800 C490,793 493,790 497,793 C500,797 500,803 497,807 C493,810 490,807 490,800 Z" id="Shape"></path>
                <path d="M624,798 C620,791 621,790 628,794 C635,798 640,803 640,806 C640,814 631,810 624,798 Z" id="Shape"></path>
                <path d="M810,800 C810,795 794,790 775,790 C756,790 740,787 740,782 C740,778 758,776 780,778 C806,781 820,787 820,796 C820,804 818,810 815,810 C812,810 810,806 810,800 Z" id="Shape"></path>
                <path d="M1122,780 C1122,761 1124,753 1127,763 C1129,772 1129,788 1127,798 C1124,807 1122,799 1122,780 Z" id="Shape"></path>
                <path d="M1192,780 C1192,761 1194,753 1197,763 C1199,772 1199,788 1197,798 C1194,807 1192,799 1192,780 Z" id="Shape"></path>
                <path d="M1702,738 C1700,670 1702,660 1718,660 C1729,660 1731,663 1723,668 C1716,672 1709,706 1707,745 L1704,815 L1702,738 Z" id="Shape"></path>
                <path d="M1794,798 C1790,791 1791,790 1798,794 C1810,801 1814,810 1806,810 C1803,810 1798,805 1794,798 Z" id="Shape"></path>
                <path d="M2100,800 C2100,793 2103,790 2107,793 C2110,797 2110,803 2107,807 C2103,810 2100,807 2100,800 Z" id="Shape"></path>
                <path d="M2130,800 C2130,793 2133,790 2137,793 C2140,797 2140,803 2137,807 C2133,810 2130,807 2130,800 Z" id="Shape"></path>
                <path d="M2693,803 C2697,800 2703,800 2707,803 C2710,807 2707,810 2700,810 C2693,810 2690,807 2693,803 Z" id="Shape"></path>
                <path d="M2903,803 C2907,800 2913,800 2917,803 C2920,807 2917,810 2910,810 C2903,810 2900,807 2903,803 Z" id="Shape"></path>
                <path d="M3070,801 C3070,795 3055,790 3038,788 C3014,786 3005,780 3003,765 C3002,749 3002,749 3006,763 C3010,775 3022,780 3046,780 C3070,780 3080,785 3080,795 C3080,803 3078,810 3075,810 C3072,810 3070,806 3070,801 Z" id="Shape"></path>
                <path d="M1594,778 L1575,755 L1598,774 C1619,792 1625,800 1617,800 C1615,800 1605,790 1594,778 Z" id="Shape"></path>
                <path d="M1904,788 C1900,781 1901,780 1908,784 C1920,791 1924,800 1916,800 C1913,800 1908,795 1904,788 Z" id="Shape"></path>
                <path d="M2200,790 C2200,783 2203,780 2207,783 C2210,787 2210,793 2207,797 C2203,800 2200,797 2200,790 Z" id="Shape"></path>
                <path d="M2810,785 C2803,776 2799,768 2801,765 C2804,763 2811,770 2818,780 C2832,804 2828,806 2810,785 Z" id="Shape"></path>
                <path d="M38,783 C44,781 56,781 63,783 C69,786 64,788 50,788 C36,788 31,786 38,783 Z" id="Shape"></path>
                <path d="M644,778 C640,771 641,770 648,774 C660,781 664,790 656,790 C653,790 648,785 644,778 Z" id="Shape"></path>
                <path d="M1313,775 C1310,766 1310,756 1314,753 C1317,749 1320,754 1320,763 C1320,774 1331,780 1358,783 L1395,787 L1357,788 C1331,789 1318,785 1313,775 Z" id="Shape"></path>
                <path d="M1958,783 C1965,780 1974,781 1977,784 C1981,787 1975,790 1964,789 C1953,789 1950,786 1958,783 Z" id="Shape"></path>
                <path d="M2347,783 C2343,780 2340,753 2340,724 C2340,692 2335,670 2328,667 C2320,664 2322,661 2333,661 C2347,660 2350,669 2350,719 C2350,776 2351,779 2378,783 L2405,787 L2379,789 C2365,789 2350,787 2347,783 Z" id="Shape"></path>
                <path d="M2508,783 C2520,781 2538,781 2548,783 C2557,786 2547,788 2525,787 C2503,787 2495,785 2508,783 Z" id="Shape"></path>
                <path d="M2644,776 C2641,768 2640,747 2643,728 C2646,698 2647,698 2648,737 C2650,772 2654,779 2673,783 L2695,787 L2672,789 C2660,789 2647,784 2644,776 Z" id="Shape"></path>
                <path d="M2868,783 C2875,780 2884,781 2887,784 C2891,787 2885,790 2874,789 C2863,789 2860,786 2868,783 Z" id="Shape"></path>
                <path d="M81,764 C81,753 84,750 87,758 C90,765 89,774 86,777 C83,781 80,775 81,764 Z" id="Shape"></path>
                <path d="M604,768 C600,761 601,760 608,764 C620,771 624,780 616,780 C613,780 608,775 604,768 Z" id="Shape"></path>
                <path d="M1925,769 C1921,763 1920,757 1923,754 C1925,751 1930,756 1933,765 C1940,782 1934,785 1925,769 Z" id="Shape"></path>
                <path d="M2240,770 C2240,763 2243,760 2247,763 C2250,767 2250,773 2247,777 C2243,780 2240,777 2240,770 Z" id="Shape"></path>
                <path d="M2834,768 C2830,761 2831,760 2838,764 C2850,771 2854,780 2846,780 C2843,780 2838,775 2834,768 Z" id="Shape"></path>
                <path d="M394,758 C390,751 391,750 398,754 C410,761 414,770 406,770 C403,770 398,765 394,758 Z" id="Shape"></path>
                <path d="M1604,748 L1585,725 L1608,744 C1620,755 1630,765 1630,767 C1630,775 1622,769 1604,748 Z" id="Shape"></path>
                <path d="M1764,758 C1760,751 1761,750 1768,754 C1780,761 1784,770 1776,770 C1773,770 1768,765 1764,758 Z" id="Shape"></path>
                <path d="M1890,760 C1890,753 1893,750 1897,753 C1900,757 1900,763 1897,767 C1893,770 1890,767 1890,760 Z" id="Shape"></path>
                <path d="M2190,760 C2190,753 2193,750 2197,753 C2200,757 2200,763 2197,767 C2193,770 2190,767 2190,760 Z" id="Shape"></path>
                <path d="M1795,750 C1798,745 1803,740 1806,740 C1808,740 1810,745 1810,750 C1810,756 1805,760 1799,760 C1794,760 1792,756 1795,750 Z" id="Shape"></path>
                <path d="M2002,735 C2002,719 2004,713 2007,723 C2009,732 2009,746 2007,753 C2004,759 2002,752 2002,735 Z" id="Shape"></path>
                <path d="M2032,735 C2032,719 2034,713 2037,723 C2039,732 2039,746 2037,753 C2034,759 2032,752 2032,735 Z" id="Shape"></path>
                <path d="M2091,744 C2091,733 2094,730 2097,738 C2100,745 2099,754 2096,757 C2093,761 2090,755 2091,744 Z" id="Shape"></path>
                <path d="M2120,750 C2120,743 2123,740 2127,743 C2130,747 2130,753 2127,757 C2123,760 2120,757 2120,750 Z" id="Shape"></path>
                <path d="M2742,730 C2742,711 2744,703 2747,713 C2749,722 2749,738 2747,748 C2744,757 2742,749 2742,730 Z" id="Shape"></path>
                <path d="M370,740 C370,733 373,730 377,733 C380,737 380,743 377,747 C373,750 370,747 370,740 Z" id="Shape"></path>
                <path d="M406,741 C402,736 409,734 420,737 C443,743 446,750 426,750 C418,750 409,746 406,741 Z" id="Shape"></path>
                <path d="M590,740 C590,733 593,730 597,733 C600,737 600,743 597,747 C593,750 590,747 590,740 Z" id="Shape"></path>
                <path d="M2210,740 C2210,735 2215,730 2220,730 C2226,730 2230,735 2230,740 C2230,746 2226,750 2220,750 C2215,750 2210,746 2210,740 Z" id="Shape"></path>
                <path d="M2550,741 C2550,735 2535,729 2518,727 C2486,723 2486,723 2523,722 C2550,720 2560,724 2560,735 C2560,743 2558,750 2555,750 C2552,750 2550,746 2550,741 Z" id="Shape"></path>
                <path d="M1739,723 C1726,707 1727,706 1743,719 C1759,732 1764,740 1756,740 C1754,740 1746,732 1739,723 Z" id="Shape"></path>
                <path d="M1774,728 C1770,721 1771,720 1778,724 C1790,731 1794,740 1786,740 C1783,740 1778,735 1774,728 Z" id="Shape"></path>
                <path d="M53,723 C62,721 76,721 83,723 C89,726 82,728 65,728 C49,728 43,726 53,723 Z" id="Shape"></path>
                <path d="M200,726 C200,724 215,720 234,718 C253,716 266,718 264,722 C259,730 200,734 200,726 Z" id="Shape"></path>
                <path d="M615,720 C618,715 623,710 626,710 C629,710 628,715 625,720 C622,726 617,730 614,730 C611,730 612,726 615,720 Z" id="Shape"></path>
                <path d="M743,715 C740,706 740,696 744,693 C747,689 750,694 750,703 C750,713 761,720 783,723 L815,727 L782,728 C761,729 747,725 743,715 Z" id="Shape"></path>
                <path d="M1127,724 C1123,720 1120,707 1120,694 C1120,682 1114,669 1108,667 C1100,664 1102,661 1113,661 C1125,660 1130,668 1130,690 C1130,717 1133,720 1160,720 C1187,720 1190,717 1190,690 C1190,660 1211,648 1225,670 C1228,675 1225,677 1216,674 C1206,670 1201,677 1198,697 C1196,720 1190,726 1165,728 C1148,730 1131,728 1127,724 Z" id="Shape"></path>
                <path d="M1313,715 C1310,706 1310,696 1314,693 C1317,689 1320,694 1320,703 C1320,713 1331,720 1353,723 L1385,727 L1352,728 C1331,729 1317,725 1313,715 Z" id="Shape"></path>
                <path d="M2160,721 C2160,715 2164,708 2170,705 C2176,702 2177,706 2174,714 C2167,732 2160,735 2160,721 Z" id="Shape"></path>
                <path d="M2251,714 C2251,703 2254,700 2257,708 C2260,715 2259,724 2256,727 C2253,731 2250,725 2251,714 Z" id="Shape"></path>
                <path d="M3003,715 C3000,706 3000,696 3004,693 C3007,689 3010,694 3010,703 C3010,713 3021,720 3043,723 L3075,727 L3042,728 C3021,729 3007,725 3003,715 Z" id="Shape"></path>
                <path d="M1585,700 C1595,689 1605,680 1608,680 C1611,680 1605,689 1595,700 C1585,711 1575,720 1572,720 C1569,720 1575,711 1585,700 Z" id="Shape"></path>
                <path d="M1890,710 C1890,703 1893,700 1897,703 C1900,707 1900,713 1897,717 C1893,720 1890,717 1890,710 Z" id="Shape"></path>
                <path d="M2140,710 C2140,703 2143,700 2147,703 C2150,707 2150,713 2147,717 C2143,720 2140,717 2140,710 Z" id="Shape"></path>
                <path d="M413,703 C417,700 423,700 427,703 C430,707 427,710 420,710 C413,710 410,707 413,703 Z" id="Shape"></path>
                <path d="M2111,694 C2111,683 2114,680 2117,688 C2120,695 2119,704 2116,707 C2113,711 2110,705 2111,694 Z" id="Shape"></path>
                <path d="M2800,703 C2800,697 2808,686 2818,679 C2834,666 2834,666 2820,685 C2812,696 2804,707 2803,709 C2801,711 2800,709 2800,703 Z" id="Shape"></path>
                <path d="M2835,700 C2838,695 2843,690 2846,690 C2849,690 2848,695 2845,700 C2842,706 2837,710 2834,710 C2831,710 2832,706 2835,700 Z" id="Shape"></path>
                <path d="M1629,686 C1638,675 1638,671 1628,667 C1621,664 1626,661 1639,661 C1662,660 1663,661 1645,680 C1625,703 1611,708 1629,686 Z" id="Shape"></path>
                <path d="M1744,688 C1740,681 1741,680 1748,684 C1760,691 1764,700 1756,700 C1753,700 1748,695 1744,688 Z" id="Shape"></path>
                <path d="M2081,683 C2080,667 2086,660 2098,660 C2108,660 2111,663 2104,668 C2098,672 2090,682 2087,690 C2083,700 2081,698 2081,683 Z" id="Shape"></path>
                <path d="M2234,680 C2235,663 2270,653 2270,669 C2270,675 2264,677 2256,674 C2248,671 2240,674 2237,682 C2234,691 2233,690 2234,680 Z" id="Shape"></path>
                <path d="M5,680 C8,675 13,670 16,670 C19,670 18,675 15,680 C12,686 7,690 4,690 C1,690 2,686 5,680 Z" id="Shape"></path>
                <path d="M810,679 C810,672 792,669 761,672 C734,673 714,672 717,668 C719,663 743,660 771,660 C808,660 820,664 820,675 C820,683 818,690 815,690 C812,690 810,685 810,679 Z" id="Shape"></path>
                <path d="M1380,681 C1380,675 1359,669 1333,667 L1285,664 L1338,662 C1378,660 1390,663 1390,675 C1390,683 1388,690 1385,690 C1382,690 1380,686 1380,681 Z" id="Shape"></path>
                <path d="M3070,681 C3070,675 3049,669 3023,667 L2975,664 L3028,662 C3068,660 3080,663 3080,675 C3080,683 3078,690 3075,690 C3072,690 3070,686 3070,681 Z" id="Shape"></path>
                <path d="M1530,666 C1537,659 1543,659 1550,666 C1556,672 1553,676 1540,676 C1527,676 1524,672 1530,666 Z" id="Shape"></path>
                <path d="M1810,666 C1817,659 1823,659 1830,666 C1836,672 1833,676 1820,676 C1807,676 1804,672 1810,666 Z" id="Shape"></path>
                <path d="M48,663 C60,661 78,661 88,663 C97,666 87,668 65,667 C43,667 35,665 48,663 Z" id="Shape"></path>
                <path d="M178,663 C185,660 194,661 197,664 C201,667 195,670 184,669 C173,669 170,666 178,663 Z" id="Shape"></path>
                <path d="M418,663 C425,660 434,661 437,664 C441,667 435,670 424,669 C413,669 410,666 418,663 Z" id="Shape"></path>
                <path d="M573,663 C588,661 610,661 623,663 C635,665 623,667 595,667 C568,667 557,665 573,663 Z" id="Shape"></path>
                <path d="M968,663 C986,661 1013,661 1028,663 C1043,665 1028,667 995,667 C962,667 950,665 968,663 Z" id="Shape"></path>
                <path d="M1953,663 C1962,661 1976,661 1983,663 C1989,666 1982,668 1965,668 C1949,668 1943,666 1953,663 Z" id="Shape"></path>
                <path d="M2168,663 C2175,660 2184,661 2187,664 C2191,667 2185,670 2174,669 C2163,669 2160,666 2168,663 Z" id="Shape"></path>
                <path d="M2483,663 C2498,661 2522,661 2538,663 C2553,665 2540,667 2510,667 C2480,667 2467,665 2483,663 Z" id="Shape"></path>
                <path d="M2638,663 C2650,661 2670,661 2683,663 C2695,665 2685,667 2660,667 C2635,667 2625,665 2638,663 Z" id="Shape"></path>
                <path d="M2858,663 C2870,661 2888,661 2898,663 C2907,666 2897,668 2875,667 C2853,667 2845,665 2858,663 Z" id="Shape"></path>
                <path d="M1658,543 C1664,541 1676,541 1683,543 C1689,546 1684,548 1670,548 C1656,548 1651,546 1658,543 Z" id="Shape"></path>
                <path d="M1835,350 C1838,345 1843,340 1846,340 C1849,340 1848,345 1845,350 C1842,356 1837,360 1834,360 C1831,360 1832,356 1835,350 Z" id="Shape"></path>
                <path d="M1524,338 C1520,331 1521,330 1528,334 C1540,341 1544,350 1536,350 C1533,350 1528,345 1524,338 Z" id="Shape"></path>
                <path d="M1464,303 C1479,285 1486,283 1497,291 C1504,297 1510,305 1510,308 C1510,311 1505,309 1498,302 C1489,293 1482,294 1466,308 C1445,325 1445,325 1464,303 Z" id="Shape"></path>
                <path d="M1806,309 C1810,301 1799,299 1767,301 L1722,305 L1752,268 C1779,233 1800,216 1785,240 C1782,246 1788,250 1799,250 C1814,250 1820,244 1820,229 C1820,213 1816,210 1803,214 C1789,220 1789,217 1806,199 C1822,181 1826,180 1828,194 C1833,216 1881,215 1911,191 C1924,181 1947,171 1962,168 C1988,163 1988,165 1942,222 C1878,303 1857,327 1865,313 C1873,297 1834,295 1825,310 C1822,316 1814,320 1809,320 C1803,320 1802,315 1806,309 Z M1838,265 C1835,262 1829,267 1826,277 C1820,291 1821,292 1831,283 C1838,276 1841,268 1838,265 Z M1925,230 C1943,211 1942,210 1923,210 C1912,210 1895,219 1885,230 C1867,249 1868,250 1887,250 C1898,250 1915,241 1925,230 Z" id="Shape"></path>
                <path d="M1279,213 C1266,197 1267,196 1283,209 C1299,222 1304,230 1296,230 C1294,230 1286,222 1279,213 Z" id="Shape"></path>
                <path d="M1334,218 C1335,211 1339,200 1343,194 C1347,187 1337,180 1313,177 C1292,173 1273,175 1270,181 C1266,186 1246,169 1225,143 C1201,113 1196,104 1212,118 C1236,140 1242,141 1300,132 C1355,124 1362,125 1375,143 C1387,161 1386,167 1363,196 C1335,233 1331,236 1334,218 Z" id="Shape"></path>
                <path d="M1835,160 C1838,155 1843,150 1846,150 C1849,150 1848,155 1845,160 C1842,166 1837,170 1834,170 C1831,170 1832,166 1835,160 Z" id="Shape"></path>
                <path d="M1982,134 C1975,126 1972,115 1975,110 C1984,95 1897,98 1880,113 C1873,119 1881,107 1898,84 C1927,46 1932,43 1967,49 C2003,55 2005,57 2002,89 C1999,118 2001,122 2016,116 C2033,110 2033,110 2015,130 C2005,141 1996,150 1996,150 C1995,149 1989,143 1982,134 Z" id="Shape"></path>
                <path d="M1329,93 C1316,77 1317,76 1333,89 C1349,102 1354,110 1346,110 C1344,110 1336,102 1329,93 Z" id="Shape"></path>
                <path d="M1169,73 C1156,57 1157,56 1173,69 C1189,82 1194,90 1186,90 C1184,90 1176,82 1169,73 Z" id="Shape"></path>
                <path d="M2040,86 C2040,84 2048,76 2058,69 C2073,56 2074,57 2061,73 C2048,89 2040,94 2040,86 Z" id="Shape"></path>
                <path d="M1304,58 C1300,51 1301,50 1308,54 C1320,61 1324,70 1316,70 C1313,70 1308,65 1304,58 Z" id="Shape"></path>
                <path d="M2080,36 C2080,34 2088,26 2098,19 C2113,6 2114,7 2101,23 C2088,39 2080,44 2080,36 Z" id="Shape"></path>
                <path d="M1124,18 C1120,11 1121,10 1128,14 C1135,18 1140,23 1140,26 C1140,34 1131,30 1124,18 Z" id="Shape"></path>
                <path d="M1940,26 C1940,24 1948,16 1958,9 C1973,-4 1974,-3 1961,13 C1948,29 1940,34 1940,26 Z" id="Shape"></path>
            </g>
            <g id="layer105" transform="translate(71.000000, 110.000000)" fill="#15D0F6">
                <path d="M22,703 C1,695 8,678 29,685 C56,694 89,682 89,664 C89,655 78,650 60,650 C12,650 -17,610 11,582 C25,568 109,566 109,580 C109,585 93,589 74,588 C34,587 24,593 32,615 C36,624 50,630 67,630 C102,630 120,648 113,677 C106,704 58,718 22,703 Z" id="Shape"></path>
                <path d="M169,640 C169,584 172,570 184,570 C194,570 199,580 199,601 C199,629 201,631 232,628 C259,626 265,620 267,598 C274,542 289,572 289,640 C289,708 274,738 267,683 C265,660 259,654 232,652 C201,649 199,651 199,679 C199,700 194,710 184,710 C172,710 169,696 169,640 Z" id="Shape"></path>
                <path d="M370,653 C386,621 399,589 399,583 C399,561 435,569 446,593 C473,652 489,692 489,700 C489,718 470,710 464,690 C460,677 449,670 433,670 C420,670 409,666 409,660 C409,655 416,650 424,650 C441,650 443,632 429,610 C418,592 417,593 392,655 C382,683 366,706 357,708 C346,710 349,697 370,653 Z" id="Shape"></path>
                <path d="M549,640 L549,570 L598,570 C632,570 649,574 653,585 C659,602 650,632 635,642 C628,646 633,660 647,679 C664,703 666,710 655,710 C641,710 599,661 599,645 C599,641 606,632 616,625 C635,611 625,590 598,590 C581,590 579,597 579,650 C579,697 576,710 564,710 C552,710 549,696 549,640 Z" id="Shape"></path>
                <path d="M711,643 L714,575 L762,572 C790,570 809,573 809,579 C809,585 793,590 773,590 C745,590 738,593 741,608 C743,619 755,626 777,628 C817,632 820,650 780,650 C763,650 749,656 745,666 C736,690 736,690 774,690 C793,690 809,695 809,700 C809,706 786,710 759,710 L708,710 L711,643 Z" id="Shape"></path>
                <path d="M979,650 C979,597 977,590 959,590 C948,590 939,586 939,580 C939,575 964,570 994,570 C1024,570 1049,575 1049,580 C1049,586 1040,590 1029,590 C1011,590 1009,597 1009,650 C1009,697 1006,710 994,710 C982,710 979,697 979,650 Z" id="Shape"></path>
                <path d="M1099,640 C1099,572 1114,542 1121,598 C1124,622 1128,625 1159,625 C1190,625 1194,622 1197,597 C1203,543 1224,575 1227,643 C1229,698 1227,710 1214,710 C1204,710 1199,700 1199,680 C1199,652 1197,650 1159,650 C1121,650 1119,652 1119,680 C1119,697 1115,710 1109,710 C1103,710 1099,680 1099,640 Z" id="Shape"></path>
                <path d="M1289,640 L1289,570 L1334,570 C1359,570 1379,575 1379,580 C1379,586 1363,590 1343,590 C1315,590 1308,593 1311,608 C1313,619 1325,626 1347,628 C1391,632 1388,650 1343,650 C1315,650 1308,653 1311,668 C1313,680 1325,686 1352,688 C1407,693 1397,710 1339,710 L1289,710 L1289,640 Z" id="Shape"></path>
                <path d="M1521,643 C1523,590 1527,575 1539,575 C1551,575 1555,590 1557,643 C1560,705 1558,710 1539,710 C1520,710 1518,705 1521,643 Z" id="Shape"></path>
                <path d="M1597,675 C1563,635 1563,632 1594,598 C1629,558 1646,564 1615,604 L1589,639 L1612,657 C1624,667 1640,683 1648,693 C1675,727 1626,711 1597,675 Z" id="Shape"></path>
                <path d="M1709,640 C1709,556 1721,550 1764,615 C1781,639 1797,660 1800,660 C1803,660 1805,641 1805,618 C1804,586 1808,575 1819,575 C1831,575 1835,590 1837,643 C1841,728 1825,732 1771,658 L1734,605 L1731,658 C1726,735 1709,721 1709,640 Z" id="Shape"></path>
                <path d="M1919,692 C1895,672 1887,626 1902,587 C1911,564 1991,563 2013,586 C2030,602 2034,666 2021,688 C2006,711 1946,714 1919,692 Z M1993,674 C2028,639 1995,575 1949,587 C1920,595 1910,659 1934,677 C1958,694 1974,694 1993,674 Z" id="Shape"></path>
                <path d="M2106,697 C2103,689 2098,658 2094,627 C2085,557 2104,548 2115,617 L2122,664 L2142,617 C2154,591 2168,570 2175,570 C2182,570 2194,588 2200,610 C2207,632 2215,650 2219,650 C2223,650 2229,632 2233,610 C2236,588 2244,570 2250,570 C2256,570 2259,580 2256,593 C2253,605 2247,636 2244,663 C2236,717 2214,726 2204,680 C2200,664 2193,648 2188,645 C2183,641 2179,629 2179,617 C2179,588 2166,605 2145,663 C2127,711 2115,721 2106,697 Z" id="Shape"></path>
                <path d="M2319,640 C2319,556 2337,546 2341,628 C2344,682 2345,685 2372,688 C2414,693 2404,710 2359,710 L2319,710 L2319,640 Z" id="Shape"></path>
                <path d="M2459,640 L2459,570 L2509,570 C2537,570 2559,575 2559,580 C2559,586 2543,590 2524,590 C2496,590 2489,594 2489,610 C2489,626 2496,630 2519,630 C2536,630 2549,635 2549,640 C2549,646 2536,650 2519,650 C2496,650 2489,654 2489,670 C2489,686 2496,690 2524,690 C2543,690 2559,695 2559,700 C2559,706 2537,710 2509,710 L2459,710 L2459,640 Z" id="Shape"></path>
                <path d="M2619,641 L2619,570 L2667,570 C2693,570 2720,575 2727,582 C2741,596 2743,686 2729,695 C2724,698 2697,704 2669,707 L2619,713 L2619,641 Z M2695,682 C2712,671 2720,641 2713,614 C2708,593 2701,589 2675,592 C2648,595 2644,599 2641,628 C2639,647 2640,668 2643,676 C2649,691 2677,694 2695,682 Z" id="Shape"></path>
                <path d="M2824,685 C2795,657 2792,624 2815,592 C2827,575 2840,570 2875,570 C2899,570 2919,575 2919,580 C2919,586 2901,590 2879,590 C2846,590 2837,594 2830,613 C2820,639 2826,660 2847,678 C2872,697 2889,692 2889,665 C2889,649 2895,640 2904,640 C2925,640 2924,696 2903,704 C2873,716 2848,710 2824,685 Z" id="Shape"></path>
                <path d="M2979,640 L2979,570 L3024,570 C3049,570 3069,575 3069,580 C3069,586 3053,590 3033,590 C3005,590 2998,593 3001,608 C3003,619 3015,626 3037,628 C3081,632 3078,650 3033,650 C3005,650 2998,653 3001,668 C3003,679 3015,686 3037,688 C3085,693 3076,710 3024,710 L2979,710 L2979,640 Z" id="Shape"></path>
                <path d="M1480,365 C1412,273 1410,262 1458,216 L1486,189 L1549,265 C1583,307 1615,338 1619,333 C1623,329 1650,297 1678,263 C1726,205 1733,200 1770,200 C1794,200 1808,204 1804,210 C1796,223 1812,223 1826,209 C1832,203 1844,200 1853,202 C1870,205 1862,218 1744,372 C1691,442 1675,450 1584,450 C1544,450 1541,447 1480,365 Z" id="Shape"></path>
                <path d="M1825,177 C1828,167 1834,162 1837,165 C1840,168 1837,176 1830,183 C1820,192 1819,191 1825,177 Z" id="Shape"></path>
                <path d="M1829,92 C1829,83 1843,58 1860,37 C1887,4 1896,0 1935,0 C1966,0 1978,4 1973,11 C1970,17 1972,26 1979,30 C1998,42 1983,70 1958,70 C1947,70 1926,79 1912,90 C1879,116 1829,117 1829,92 Z" id="Shape"></path>
            </g>
        </g>
    </g>
</svg>
